<svg class="t-logo" viewBox="0 0 400 148" width="400" height="148" xmlns="http://www.w3.org/2000/svg" role="img" aria-label="Tentare" xmlns:c2pa="http://c2pa.org/manifest"><metadata><c2pa:manifest>AAAWgmp1bWIAAAAeanVtZGMycGEAEQAQgAAAqgA4m3EDYzJwYQAAABZcanVtYgAAAEdqdW1kYzJtYQARABCAAACqADibcQN1cm46YzJwYTpkMTQzNDQ0MC02ZGVlLTQyYjUtYmRmYi1lNDM0ZmQ4NmU3NmEAAAADl2p1bWIAAAApanVtZGMyYXMAEQAQgAAAqgA4m3EDYzJwYS5hc3NlcnRpb25zAAAAALxqdW1iAAAARGp1bWRjYm9yABEAEIAAAKoAOJtxE2MycGEuaW5ncmVkaWVudC52MwAAAAAYYzJzaA3AZNKTMfRZDaZ14lMaMU4AAABwY2JvcqNpZGM6Zm9ybWF0bWltYWdlL3N2Zyt4bWxqaW5zdGFuY2VJRHgseG1wOmlpZDpkNzFmMTZlOC00ZWQ1LTQxNjMtYWVlYy00ZDEzYjFlNWEwYTRscmVsYXRpb25zaGlwaHBhcmVudE9mAAAB4mp1bWIAAABBanVtZGNib3IAEQAQgAAAqgA4m3ETYzJwYS5hY3Rpb25zLnYyAAAAABhjMnNoDGkDNXUxcg5F1AyDa2F85AAAAZljYm9yomdhY3Rpb25zgqJmYWN0aW9ua2MycGEub3BlbmVkanBhcmFtZXRlcnOha2luZ3JlZGllbnRzgaJjdXJseC1zZWxmI2p1bWJmPWMycGEuYXNzZXJ0aW9ucy9jMnBhLmluZ3JlZGllbnQudjNkaGFzaFggpmHtdNW09nfi5m9yBq+4MqQxqxhxIMAsvuxo+6FevBmkZmFjdGlvbngdY29tLmFudGhyb3BpYy5jbGF1ZGUucHJvdmlkZWRqcGFyYW1ldGVyc6F4H2NvbS5hbnRocm9waWMub3JpZ2luLWNvbmZpZGVuY2VndW5rbm93bmtkZXNjcmlwdGlvbnhmQ2xhdWRlIHByb3ZpZGVkIHRoaXMgZmlsZSBhdCB0aGUgcmVxdWVzdCBvZiBhIHVzZXIgYW5kIG1heSBoYXZlIGNyZWF0ZWQgb3IgbW9kaWZpZWQgdGhlIGZpbGUgY29udGVudHMubXNvZnR3YXJlQWdlbnShZG5hbWVmQ2xhdWRlcmFsbEFjdGlvbnNJbmNsdWRlZPUAAADIanVtYgAAAEBqdW1kY2JvcgARABCAAACqADibcRNjMnBhLmhhc2guZGF0YQAAAAAYYzJzaHwV6LHaBw1Ys9guyFBySDIAAACAY2JvcqVjYWxnZnNoYTI1NmNwYWRNAAAAAAAAAAAAAAAAAGRoYXNoWCCE9zIyI/TkQPzCteFhzRGZb495zGCrHxUsVJ660GS2lWRuYW1lbmp1bWJmIG1hbmlmZXN0amV4Y2x1c2lvbnOBomVzdGFydBjFZmxlbmd0aBkeBAAAAj5qdW1iAAAAJ2p1bWRjMmNsABEAEIAAAKoAOJtxA2MycGEuY2xhaW0udjIAAAACD2Nib3KlY2FsZ2ZzaGEyNTZpc2lnbmF0dXJleE1zZWxmI2p1bWJmPS9jMnBhL3VybjpjMnBhOmQxNDM0NDQwLTZkZWUtNDJiNS1iZGZiLWU0MzRmZDg2ZTc2YS9jMnBhLnNpZ25hdHVyZWppbnN0YW5jZUlEeCx4bXA6aWlkOmMyMjY3ZDk4LWI3NjctNDE3MS1hYWExLTZlNjQ0Zjc1NjA5MnJjcmVhdGVkX2Fzc2VydGlvbnODomN1cmx4LXNlbGYjanVtYmY9YzJwYS5hc3NlcnRpb25zL2MycGEuaW5ncmVkaWVudC52M2RoYXNoWCCmYe101bT2d+Lmb3IGr7gypDGrGHEgwCy+7Gj7oV68GaJjdXJseCpzZWxmI2p1bWJmPWMycGEuYXNzZXJ0aW9ucy9jMnBhLmFjdGlvbnMudjJkaGFzaFggMnol5i9WpddpdpoHthDnCqtu2IxuM3CfkmdsyMWyqLyiY3VybHgpc2VsZiNqdW1iZj1jMnBhLmFzc2VydGlvbnMvYzJwYS5oYXNoLmRhdGFkaGFzaFggTx+8zbw8NxuNCbwuHW6hGsqKS2RMyKAUH3pwaRHBqat0Y2xhaW1fZ2VuZXJhdG9yX2luZm+jZG5hbWVvQW50aHJvcGljIEZpbGVzZ3ZlcnNpb25lMS4wLjBrc3BlY1ZlcnNpb25lMi40LjAAABA4anVtYgAAAChqdW1kYzJjcwARABCAAACqADibcQNjMnBhLnNpZ25hdHVyZQAAABAIY2JvctKEWQISogEmGCFZAgowggIGMIIBjaADAgECAhRA5aAK7sI50L64g/oGQgU9Z1UTADAKBggqhkjOPQQDAzBJMRcwFQYDVQQKEw5BbnRocm9waWMsIFBCQzEuMCwGA1UEAxMlQW50aHJvcGljIENvbnRlbnQgQ3JlZGVudGlhbHMgUm9vdCBDQTAeFw0yNjA4MDcxODQzNTZaFw0yODA4MDYxOTQzNTZaMEQxFzAVBgNVBAoTDkFudGhyb3BpYywgUEJDMSkwJwYDVQQDEyBBbnRocm9waWMgQ2xhdWRlIENvbnRlbnQgU2lnbmluZzBZMBMGByqGSM49AgEGCCqGSM49AwEHA0IABJh6CmvLUBgFFNU0vUKlOVtE6djd17L5SuwX0LemFisBM3dkd/3cyjxFA3Qo5S46fX0/ihY0VZ7mfb9KF703t5OjWDBWMA4GA1UdDwEB/wQEAwIHgDAVBgNVHSUEDjAMBgorBgEEAYPoXgIBMAwGA1UdEwEB/wQCMAAwHwYDVR0jBBgwFoAUzlHiBIFOZFsj+OPEz5o+nMHXXMIwCgYIKoZIzj0EAwMDZwAwZAIwMXMdFJ4BetLLVY7ORuE9noqbbAZOZn/aArXyTwFAZfKrPzxF2vPoJNf1+UCdg1XGAjBwX1zd9WGqYkqmL5SFqw1QySjr1zJfpJM9+1rdDwSPLMOPOjKuiXjoU/pUUeG9RwmhY3BhZFkNngAAAAAAAAAAAAAAAAAAAAAAAAAAAAAAAAAAAAAAAAAAAAAAAAAAAAAAAAAAAAAAAAAAAAAAAAAAAAAAAAAAAAAAAAAAAAAAAAAAAAAAAAAAAAAAAAAAAAAAAAAAAAAAAAAAAAAAAAAAAAAAAAAAAAAAAAAAAAAAAAAAAAAAAAAAAAAAAAAAAAAAAAAAAAAAAAAAAAAAAAAAAAAAAAAAAAAAAAAAAAAAAAAAAAAAAAAAAAAAAAAAAAAAAAAAAAAAAAAAAAAAAAAAAAAAAAAAAAAAAAAAAAAAAAAAAAAAAAAAAAAAAAAAAAAAAAAAAAAAAAAAAAAAAAAAAAAAAAAAAAAAAAAAAAAAAAAAAAAAAAAAAAAAAAAAAAAAAAAAAAAAAAAAAAAAAAAAAAAAAAAAAAAAAAAAAAAAAAAAAAAAAAAAAAAAAAAAAAAAAAAAAAAAAAAAAAAAAAAAAAAAAAAAAAAAAAAAAAAAAAAAAAAAAAAAAAAAAAAAAAAAAAAAAAAAAAAAAAAAAAAAAAAAAAAAAAAAAAAAAAAAAAAAAAAAAAAAAAAAAAAAAAAAAAAAAAAAAAAAAAAAAAAAAAAAAAAAAAAAAAAAAAAAAAAAAAAAAAAAAAAAAAAAAAAAAAAAAAAAAAAAAAAAAAAAAAAAAAAAAAAAAAAAAAAAAAAAAAAAAAAAAAAAAAAAAAAAAAAAAAAAAAAAAAAAAAAAAAAAAAAAAAAAAAAAAAAAAAAAAAAAAAAAAAAAAAAAAAAAAAAAAAAAAAAAAAAAAAAAAAAAAAAAAAAAAAAAAAAAAAAAAAAAAAAAAAAAAAAAAAAAAAAAAAAAAAAAAAAAAAAAAAAAAAAAAAAAAAAAAAAAAAAAAAAAAAAAAAAAAAAAAAAAAAAAAAAAAAAAAAAAAAAAAAAAAAAAAAAAAAAAAAAAAAAAAAAAAAAAAAAAAAAAAAAAAAAAAAAAAAAAAAAAAAAAAAAAAAAAAAAAAAAAAAAAAAAAAAAAAAAAAAAAAAAAAAAAAAAAAAAAAAAAAAAAAAAAAAAAAAAAAAAAAAAAAAAAAAAAAAAAAAAAAAAAAAAAAAAAAAAAAAAAAAAAAAAAAAAAAAAAAAAAAAAAAAAAAAAAAAAAAAAAAAAAAAAAAAAAAAAAAAAAAAAAAAAAAAAAAAAAAAAAAAAAAAAAAAAAAAAAAAAAAAAAAAAAAAAAAAAAAAAAAAAAAAAAAAAAAAAAAAAAAAAAAAAAAAAAAAAAAAAAAAAAAAAAAAAAAAAAAAAAAAAAAAAAAAAAAAAAAAAAAAAAAAAAAAAAAAAAAAAAAAAAAAAAAAAAAAAAAAAAAAAAAAAAAAAAAAAAAAAAAAAAAAAAAAAAAAAAAAAAAAAAAAAAAAAAAAAAAAAAAAAAAAAAAAAAAAAAAAAAAAAAAAAAAAAAAAAAAAAAAAAAAAAAAAAAAAAAAAAAAAAAAAAAAAAAAAAAAAAAAAAAAAAAAAAAAAAAAAAAAAAAAAAAAAAAAAAAAAAAAAAAAAAAAAAAAAAAAAAAAAAAAAAAAAAAAAAAAAAAAAAAAAAAAAAAAAAAAAAAAAAAAAAAAAAAAAAAAAAAAAAAAAAAAAAAAAAAAAAAAAAAAAAAAAAAAAAAAAAAAAAAAAAAAAAAAAAAAAAAAAAAAAAAAAAAAAAAAAAAAAAAAAAAAAAAAAAAAAAAAAAAAAAAAAAAAAAAAAAAAAAAAAAAAAAAAAAAAAAAAAAAAAAAAAAAAAAAAAAAAAAAAAAAAAAAAAAAAAAAAAAAAAAAAAAAAAAAAAAAAAAAAAAAAAAAAAAAAAAAAAAAAAAAAAAAAAAAAAAAAAAAAAAAAAAAAAAAAAAAAAAAAAAAAAAAAAAAAAAAAAAAAAAAAAAAAAAAAAAAAAAAAAAAAAAAAAAAAAAAAAAAAAAAAAAAAAAAAAAAAAAAAAAAAAAAAAAAAAAAAAAAAAAAAAAAAAAAAAAAAAAAAAAAAAAAAAAAAAAAAAAAAAAAAAAAAAAAAAAAAAAAAAAAAAAAAAAAAAAAAAAAAAAAAAAAAAAAAAAAAAAAAAAAAAAAAAAAAAAAAAAAAAAAAAAAAAAAAAAAAAAAAAAAAAAAAAAAAAAAAAAAAAAAAAAAAAAAAAAAAAAAAAAAAAAAAAAAAAAAAAAAAAAAAAAAAAAAAAAAAAAAAAAAAAAAAAAAAAAAAAAAAAAAAAAAAAAAAAAAAAAAAAAAAAAAAAAAAAAAAAAAAAAAAAAAAAAAAAAAAAAAAAAAAAAAAAAAAAAAAAAAAAAAAAAAAAAAAAAAAAAAAAAAAAAAAAAAAAAAAAAAAAAAAAAAAAAAAAAAAAAAAAAAAAAAAAAAAAAAAAAAAAAAAAAAAAAAAAAAAAAAAAAAAAAAAAAAAAAAAAAAAAAAAAAAAAAAAAAAAAAAAAAAAAAAAAAAAAAAAAAAAAAAAAAAAAAAAAAAAAAAAAAAAAAAAAAAAAAAAAAAAAAAAAAAAAAAAAAAAAAAAAAAAAAAAAAAAAAAAAAAAAAAAAAAAAAAAAAAAAAAAAAAAAAAAAAAAAAAAAAAAAAAAAAAAAAAAAAAAAAAAAAAAAAAAAAAAAAAAAAAAAAAAAAAAAAAAAAAAAAAAAAAAAAAAAAAAAAAAAAAAAAAAAAAAAAAAAAAAAAAAAAAAAAAAAAAAAAAAAAAAAAAAAAAAAAAAAAAAAAAAAAAAAAAAAAAAAAAAAAAAAAAAAAAAAAAAAAAAAAAAAAAAAAAAAAAAAAAAAAAAAAAAAAAAAAAAAAAAAAAAAAAAAAAAAAAAAAAAAAAAAAAAAAAAAAAAAAAAAAAAAAAAAAAAAAAAAAAAAAAAAAAAAAAAAAAAAAAAAAAAAAAAAAAAAAAAAAAAAAAAAAAAAAAAAAAAAAAAAAAAAAAAAAAAAAAAAAAAAAAAAAAAAAAAAAAAAAAAAAAAAAAAAAAAAAAAAAAAAAAAAAAAAAAAAAAAAAAAAAAAAAAAAAAAAAAAAAAAAAAAAAAAAAAAAAAAAAAAAAAAAAAAAAAAAAAAAAAAAAAAAAAAAAAAAAAAAAAAAAAAAAAAAAAAAAAAAAAAAAAAAAAAAAAAAAAAAAAAAAAAAAAAAAAAAAAAAAAAAAAAAAAAAAAAAAAAAAAAAAAAAAAAAAAAAAAAAAAAAAAAAAAAAAAAAAAAAAAAAAAAAAAAAAAAAAAAAAAAAAAAAAAAAAAAAAAAAAAAAAAAAAAAAAAAAAAAAAAAAAAAAAAAAAAAAAAAAAAAAAAAAAAAAAAAAAAAAAAAAAAAAAAAAAAAAAAAAAAAAAAAAAAAAAAAAAAAAAAAAAAAAAAAAAAAAAAAAAAAAAAAAAAAAAAAAAAAAAAAAAAAAAAAAAAAAAAAAAAAAAAAAAAAAAAAAAAAAAAAAAAAAAAAAAAAAAAAAAAAAAAAAAAAAAAAAAAAAAAAAAAAAAAAAAAAAAAAAAAAAAAAAAAAAAAAAAAAAAAAAAAAAAAAAAAAAAAAAAAAAAAAAAAAAAAAAAAAAAAAAAAAAAAAAAAAAAAAAAAAAAAAAAAAAAAAAAAAAAAAAAAAAAAAAAAAAAAAAAAAAAAAAAAAAAAAAAAAAAAAAAAAAAAAAAAAAAAAAAAAAAAAAAAAAAAAAAAAAAAAAAAAAAAAAAAAAAAAAAAAAAAAAAAAAAAAAAAAAAAAAAAAAAAAAAAAAAAAAAAAAAAAAAAAAAAAAAAAAAAAAAAAAAAAAAAAAAAAAAAAAAAAAAAAAAAAAAAAAAAAAAAAAAAAAAAAAAAAAAAAAAAAAAAAAAAAAAAAAAAAAAAAAAAAAAAAAAAAAAAAAAAAAAAAAAAAAAAAAAAAAAAAAAAAAAAAAAAAAAAAAAAAAAAAAAAAAAAAAAAAAAAAAAAAAAAAAAAAAAAAAAAAAAAAAAAAAAAAAAAAAAAAAAAAAAAAAAAAAAAAAAAAAAAAAAAAAAAAAAAAAAAAAAAAAAAAAAAAAAAAAAAAAAAAAAAAAAAAAAAAAAAAAAAAAAAAAAAAAAAAAAAAAAAAAAAAAAAAAAAAAAAAAAAAAAAAAAAAAAAAAAAAAAAAAAAAAAAAAAAAAAAAAAAAAAAAAAAAAAAAAAAAAAAAAAAAAAAAAAAAAAAAAAAAAAAAAAAAAAAAAAAAAAAAAAAAAAAAAAAAAAAAAAAAAAAAAAAAAAAAAAAAAAAAAAAAAAAAAAAAAAAAAAAAAAAAAAAAAAAAAAAAAAAAAAAAAAAAAAAAAAAAAAAAAAAAAAAAAAAAAAAAAAAAAAAAAAAAAAAAAAAAAAAAAAAAAAAAAAAAAAAAAAAAAAAAAAAAAAAAAAAAAAAAAAAAAAAAAAAAAAAAAAAAAAAAAAAAAAAAAAAAAAAAAAAAAAAAAAAAAAAAAAAAAAAAAAAAAAAAAAAAAAAAAAAAAAAAAAAAAAAAAAAAAAAAAAAAAAAAAAAAAAAAAAAAAAAAAAAAAAAAAAAAAAAAAAAAAAAAAAAAAAAAAAAAAAAAAAAAAAAAAAAAAAAAAAAAAAAAAAAAAAAAAAAAAAAAAAAAAAAAAAAAAAAAAAAAAAAAAAAAAAAAAAAAAAAAAAAAAAAAAAAAAAAAAAAAAAAAAAAAAAAAAAAAAAAAAAAAAAAAAAAAAAAAAAAAAAAAAAAAAAAAAAAAAAAAAAAAPZYQFVhBvSbVnG9wr+UU3cIgXIpQrdVRIWtU0q7DOo/E+73vwGwJGjmucuye+tuymLCvR5F5VAUKTGpMFiLwDCc3WI=</c2pa:manifest></metadata>
  <g class="t-marca">
  <g transform="translate(0,6)">
  <path class="t-hoja-i" fill="#FFFFFF" d="M11 11H36C39 11 40 15 41 20C37 26 34 32 31 40C21 41 7 33 7 20V15A4 4 0 0 1 11 11Z"></path>
    <path class="t-hoja-d" fill="#FFFFFF" d="M72 11H109A4 4 0 0 1 113 15V22C113 32 104 40 92 40H72Z"></path>
    <path class="t-disco" fill="#FFFFFF" d="M72 58A25.5 25.5 0 0 1 72 109Z"></path>
    <path class="t-tallo" fill="#FFFFFF" d="M56 18C62 22 67 31 67 42V103A6 6 0 0 1 61 109H50C42 109 36 99 36 82V56C36 35 45 21 56 18Z"></path>
  </g>
  </g>
  <path class="t-palabra" fill="#FFFFFF" d="M157.18 96.8Q150.58 96.8 145.68 94.03Q140.78 91.26 138.11 86.43Q135.44 81.6 135.44 75.4Q135.44 68.32 138.28 63.33Q141.12 58.34 145.69 55.67Q150.26 53 155.38 53Q159.28 53 162.81 54.53Q166.34 56.06 169.07 58.82Q171.8 61.58 173.42 65.31Q175.04 69.04 175.08 73.46Q175.02 75.06 173.82 76.09Q172.62 77.12 171.02 77.12H139.94L138.02 70.36H168.1L166.58 71.74V69.76Q166.36 66.96 164.68 64.86Q163 62.76 160.55 61.58Q158.1 60.4 155.38 60.4Q152.98 60.4 150.76 61.15Q148.54 61.9 146.84 63.59Q145.14 65.28 144.13 68.04Q143.12 70.8 143.12 74.86Q143.12 79.32 144.96 82.59Q146.8 85.86 149.9 87.65Q153 89.44 156.82 89.44Q159.72 89.44 161.64 88.85Q163.56 88.26 164.85 87.37Q166.14 86.48 167.1 85.68Q168.34 84.96 169.48 84.96Q170.94 84.96 171.91 85.97Q172.88 86.98 172.88 88.32Q172.88 90.08 171.12 91.5Q168.94 93.62 165.15 95.21Q161.36 96.8 157.18 96.8ZM204.82 53Q210.52 53 213.62 55.36Q216.72 57.72 217.96 61.67Q219.2 65.62 219.2 70.46V91.94Q219.2 93.66 218.06 94.83Q216.92 96 215.2 96Q213.46 96 212.33 94.83Q211.2 93.66 211.2 91.94V70.54Q211.2 67.7 210.4 65.41Q209.6 63.12 207.65 61.74Q205.7 60.36 202.22 60.36Q198.94 60.36 196.45 61.74Q193.96 63.12 192.54 65.41Q191.12 67.7 191.12 70.54V91.94Q191.12 93.66 189.98 94.83Q188.84 96 187.12 96Q185.38 96 184.25 94.83Q183.12 93.66 183.12 91.94V57.98Q183.12 56.26 184.26 55.09Q185.4 53.92 187.12 53.92Q188.86 53.92 189.99 55.09Q191.12 56.26 191.12 57.98V62.52L189.72 63.3Q190.26 61.56 191.66 59.73Q193.06 57.9 195.06 56.37Q197.06 54.84 199.55 53.92Q202.04 53 204.82 53ZM228.76 54.44H247.62Q249.22 54.44 250.29 55.52Q251.36 56.6 251.36 58.18Q251.36 59.72 250.29 60.76Q249.22 61.8 247.62 61.8H228.76Q227.18 61.8 226.1 60.72Q225.02 59.64 225.02 58.06Q225.02 56.52 226.1 55.48Q227.18 54.44 228.76 54.44ZM237.22 44Q238.96 44 240.06 45.17Q241.16 46.34 241.16 48.06V85.18Q241.16 86.68 241.66 87.53Q242.16 88.38 242.99 88.71Q243.82 89.04 244.72 89.04Q245.58 89.04 246.28 88.73Q246.98 88.42 247.9 88.42Q248.88 88.42 249.67 89.31Q250.46 90.2 250.46 91.72Q250.46 93.58 248.4 94.79Q246.34 96 243.9 96Q242.52 96 240.68 95.78Q238.84 95.56 237.14 94.58Q235.44 93.6 234.3 91.47Q233.16 89.34 233.16 85.52V48.06Q233.16 46.34 234.33 45.17Q235.5 44 237.22 44ZM293.74 53.32Q295.48 53.32 296.61 54.46Q297.74 55.6 297.74 57.38V91.94Q297.74 93.66 296.6 94.83Q295.46 96 293.74 96Q292 96 290.87 94.83Q289.74 93.66 289.74 91.94V86.16L291.38 86.44Q291.38 87.86 290.22 89.63Q289.06 91.4 287.06 93.02Q285.06 94.64 282.35 95.72Q279.64 96.8 276.48 96.8Q271 96.8 266.59 93.97Q262.18 91.14 259.63 86.19Q257.08 81.24 257.08 74.88Q257.08 68.44 259.64 63.52Q262.2 58.6 266.55 55.8Q270.9 53 276.24 53Q279.68 53 282.6 54.09Q285.52 55.18 287.68 56.94Q289.84 58.7 291.03 60.68Q292.22 62.66 292.22 64.38L289.74 64.66V57.38Q289.74 55.66 290.87 54.49Q292 53.32 293.74 53.32ZM277.42 89.44Q281.18 89.44 284.04 87.53Q286.9 85.62 288.51 82.31Q290.12 79 290.12 74.88Q290.12 70.76 288.51 67.47Q286.9 64.18 284.04 62.27Q281.18 60.36 277.42 60.36Q273.74 60.36 270.88 62.25Q268.02 64.14 266.4 67.42Q264.78 70.7 264.78 74.88Q264.78 79 266.39 82.31Q268 85.62 270.86 87.53Q273.72 89.44 277.42 89.44ZM311.88 96Q310.14 96 309.01 94.83Q307.88 93.66 307.88 91.94V57.98Q307.88 56.26 309.02 55.09Q310.16 53.92 311.88 53.92Q313.62 53.92 314.75 55.09Q315.88 56.26 315.88 57.98V67L315.12 63.5Q315.78 61.28 317.1 59.37Q318.42 57.46 320.26 56.02Q322.1 54.58 324.35 53.79Q326.6 53 329.08 53Q331.16 53 332.71 54.1Q334.26 55.2 334.26 56.88Q334.26 59.04 333.14 60.03Q332.02 61.02 330.66 61.02Q329.4 61.02 328.3 60.51Q327.2 60 325.68 60Q323.96 60 322.23 60.89Q320.5 61.78 319.06 63.49Q317.62 65.2 316.75 67.53Q315.88 69.86 315.88 72.72V91.94Q315.88 93.66 314.74 94.83Q313.6 96 311.88 96ZM358.18 96.8Q351.58 96.8 346.68 94.03Q341.78 91.26 339.11 86.43Q336.44 81.6 336.44 75.4Q336.44 68.32 339.28 63.33Q342.12 58.34 346.69 55.67Q351.26 53 356.38 53Q360.28 53 363.81 54.53Q367.34 56.06 370.07 58.82Q372.8 61.58 374.42 65.31Q376.04 69.04 376.08 73.46Q376.02 75.06 374.82 76.09Q373.62 77.12 372.02 77.12H340.94L339.02 70.36H369.1L367.58 71.74V69.76Q367.36 66.96 365.68 64.86Q364 62.76 361.55 61.58Q359.1 60.4 356.38 60.4Q353.98 60.4 351.76 61.15Q349.54 61.9 347.84 63.59Q346.14 65.28 345.13 68.04Q344.12 70.8 344.12 74.86Q344.12 79.32 345.96 82.59Q347.8 85.86 350.9 87.65Q354 89.44 357.82 89.44Q360.72 89.44 362.64 88.85Q364.56 88.26 365.85 87.37Q367.14 86.48 368.1 85.68Q369.34 84.96 370.48 84.96Q371.94 84.96 372.91 85.97Q373.88 86.98 373.88 88.32Q373.88 90.08 372.12 91.5Q369.94 93.62 366.15 95.21Q362.36 96.8 358.18 96.8Z"></path>
</svg>