<svg xmlns="http://www.w3.org/2000/svg" fill="none" viewBox="0 0 420 420" id="Social-Media-Discussion--Streamline-Bangalore">
  <desc>
    Social Media Discussion Streamline Illustration: https://streamlinehq.com
  </desc>
  <g id="Social-media-Social-media-discussion-01">
    <g id="color 2">
      <path id="Vector" fill="#E9CFB4" d="M405.1908 295.3839c-10.5378 -17.8017 -29.767500000000002 -41.1873 -49.7154 -46.5234l-5.586 13.326600000000001c-0.3654 0.8211 -0.9849 1.5015 -1.7682 1.9404000000000001 -0.7854 0.4389 -1.6905000000000001 0.6132 -2.5809 0.4935l-15.2817 -2.1546000000000003c-0.6174 -0.08820000000000001 -1.2054 -0.3129 -1.7241 -0.6594s-0.9513 -0.8043 -1.2705 -1.3398c-0.3171 -0.5355000000000001 -0.5103 -1.1361 -0.5649000000000001 -1.7577 -0.0567 -0.6194999999999999 0.029400000000000003 -1.2453 0.2478 -1.8291000000000002l3.3117 -9.8154c-10.6239 2.6964 -26.5335 -5.229000000000001 -36.0297 -10.773L310.82730000000004 197.4c-3.1836 -3.6907500000000004 -7.1463 -6.62886 -11.6046 -8.60223 -4.4562 -1.97337 -9.2967 -2.9328600000000002 -14.168700000000001 -2.80917l-19.4313 42.7329c-2.4276 5.357100000000001 -2.8413 11.4114 -1.1613000000000002 17.047800000000002 1.6779000000000002 5.636400000000001 5.3361 10.479000000000001 10.2984 13.6353 11.6655 7.612500000000001 24.5343 13.198500000000001 38.0625 16.5186 -0.24570000000000003 11.3085 2.2155 22.512000000000004 7.182 32.676 12.2241 3.3096 25.1013 3.3516000000000004 37.3464 0.11970000000000001 -0.7476 -7.2177 2.4696 -16.4724 5.0672999999999995 -23.259600000000002l15.241800000000001 16.1574 -31.71 27.411300000000004c1.05 10.663800000000002 9.5382 19.740000000000002 19.3914 22.8228l35.28 -29.7255c3.7968 -3.2004 6.339900000000001 -7.6398 7.1757 -12.5349 0.8358000000000001 -4.8951 -0.08610000000000001 -9.9267 -2.6061000000000005 -14.2065Z" stroke-width="2.1"></path>
      <path id="Vector_2" fill="#E9CFB4" d="M58.7433 148.512c-2.14788 1.23354 -4.457879999999999 2.16027 -6.8628 2.7531C29.8956 156.8112 18.0453 185.5791 12.39 206.367c-1.468992 5.390700000000001 -0.814842 11.1384 1.827714 16.0608 2.642535 4.9224 7.072296000000001 8.6457 12.376686 10.3992 15.561630000000001 5.0064 31.75011 7.8015 48.089999999999996 8.2992 4.55259 -7.629300000000001 5.928090000000001 -16.7433 3.8304000000000005 -25.3764 -12.39231 -1.0731000000000002 -24.66387 -3.2508000000000004 -36.668099999999995 -6.510000000000001 2.27493 -6.34179 5.12673 -12.46161 8.519700000000002 -18.2826 2.9862 10.0569 1.8438 6.1824 5.04 17.1255 13.167 2.1546000000000003 28.6881 3.1122 43.3314 -0.5984999999999999 2.35116 -8.748600000000001 3.75564 -17.724420000000002 4.189500000000001 -26.772900000000003 7.12866 5.64984 15.116010000000001 10.122000000000002 23.6586 13.2468 3.2886 1.28478 6.80148 1.89735 10.33074 1.80138 3.5294700000000003 -0.09576000000000001 7.003710000000001 -0.8983800000000001 10.21776 -2.3599799999999997 14.412300000000002 -6.5646 23.421300000000002 -11.491200000000001 40.937400000000004 -24.6183 0.11970000000000001 -10.4139 -4.5087 -17.6757 -14.0049 -21.7056 -11.172 8.3391 -24.4188 16.8777 -36.5883 21.7056 -8.434020000000002 -6.3063 -17.34453 -11.94921 -26.651100000000003 -16.8777 -10.2522 -4.9959 -24.658200000000004 -6.6234 -26.772900000000003 -6.9027 -6.5517900000000004 7.68579 -12.7575 7.19691 -25.311300000000003 3.5112Z" stroke-width="2.1"></path>
      <path id="Vector_3" fill="#E9CFB4" d="M70.4739 218.8557c-0.44184 0 -0.87402 0.1302 -1.24131 0.3759 -0.3675 0.24570000000000003 -0.6539400000000001 0.5942999999999999 -0.8229900000000001 1.0038 -0.16905 0.40740000000000004 -0.21336 0.8568 -0.12726 1.2915 0.08631 0.4326 0.29904000000000003 0.8316000000000001 0.6115200000000001 1.1424 0.31248 0.3129 0.7106399999999999 0.525 1.14408 0.6132 0.43344 0.08610000000000001 0.88263 0.042 1.29108 -0.1281 0.40824 -0.1701 0.7572599999999999 -0.4557 1.00275 -0.8232 0.24549 -0.3675 0.37653 -0.8001 0.37653 -1.2411 -0.009240000000000002 -0.5901000000000001 -0.24759000000000003 -1.1529 -0.6646500000000001 -1.5708 -0.41706000000000004 -0.41580000000000006 -0.98007 -0.6552 -1.5697500000000002 -0.6636000000000001Z" stroke-width="2.1"></path>
      <path id="Vector_4" fill="#E9CFB4" d="M38.035199999999996 231.06510000000003c1.2339600000000002 0 2.2344000000000004 -0.9996 2.2344000000000004 -2.2344000000000004 0 -1.2348 -1.00044 -2.2344000000000004 -2.2344000000000004 -2.2344000000000004 -1.23417 0 -2.2344000000000004 0.9996 -2.2344000000000004 2.2344000000000004 0 1.2348 1.00023 2.2344000000000004 2.2344000000000004 2.2344000000000004Z" stroke-width="2.1"></path>
      <path id="Vector_5" fill="#E9CFB4" d="M22.2348 201.18c1.2339600000000002 0 2.2344000000000004 -1.00044 2.2344000000000004 -2.2344000000000004 0 -1.2339600000000002 -1.00044 -2.2344000000000004 -2.2344000000000004 -2.2344000000000004 -1.2339600000000002 0 -2.2344209999999998 1.00044 -2.2344209999999998 2.2344000000000004 0 1.2339600000000002 1.000461 2.2344000000000004 2.2344209999999998 2.2344000000000004Z" stroke-width="2.1"></path>
      <path id="Vector_6" fill="#E9CFB4" d="M49.167300000000004 182.22750000000002c1.2339600000000002 0 2.2344000000000004 -1.00044 2.2344000000000004 -2.2344000000000004 0 -1.2339600000000002 -1.00044 -2.2344000000000004 -2.2344000000000004 -2.2344000000000004 -1.2339600000000002 0 -2.2344000000000004 1.00044 -2.2344000000000004 2.2344000000000004 0 1.2339600000000002 1.00044 2.2344000000000004 2.2344000000000004 2.2344000000000004Z" stroke-width="2.1"></path>
      <path id="Vector_7" fill="#E9CFB4" d="M59.46150000000001 151.7838c-0.44205 0 -0.87402 0.13104 -1.24131 0.37653 -0.3675 0.24549 -0.6539400000000001 0.5945100000000001 -0.8229900000000001 1.00275 -0.16926000000000002 0.40824 -0.21336 0.85764 -0.12726 1.29108 0.08631 0.43344 0.29904000000000003 0.83139 0.6115200000000001 1.14387 0.31248 0.31248 0.7106399999999999 0.52542 1.14408 0.6115200000000001 0.43344 0.08631 0.88263 0.042 1.29108 -0.12705 0.40824 -0.16905 0.75705 -0.45549000000000006 1.00275 -0.8229900000000001 0.24549 -0.3675 0.37653 -0.79947 0.37653 -1.24131 -0.009240000000000002 -0.58968 -0.24759000000000003 -1.1526900000000002 -0.6646500000000001 -1.5697500000000002s-0.98007 -0.65541 -1.5697500000000002 -0.6646500000000001Z" stroke-width="2.1"></path>
      <path id="Vector_8" fill="#E9CFB4" d="M81.8454 174.2076c-0.44205 0 -0.87402 0.13104 -1.24152 0.37653 -0.36729 0.24549 -0.65373 0.5945100000000001 -0.82278 1.00275 -0.16926000000000002 0.40824 -0.21336 0.85764 -0.12726 1.29108 0.08631 0.43344 0.29904000000000003 0.8316000000000001 0.6115200000000001 1.14408 0.31248 0.31248 0.7106399999999999 0.52521 1.14408 0.6113100000000001 0.43344 0.08631 0.88263 0.042 1.29108 -0.12705 0.40824 -0.16905 0.75705 -0.45549000000000006 1.00275 -0.8229900000000001 0.24549 -0.3675 0.37653 -0.79947 0.37653 -1.24131 -0.009240000000000002 -0.58968 -0.24759000000000003 -1.1526900000000002 -0.6646500000000001 -1.5697500000000002s-0.98007 -0.65541 -1.5697500000000002 -0.6646500000000001Z" stroke-width="2.1"></path>
      <path id="Vector_9" fill="#E9CFB4" d="M63.690900000000006 194.47680000000003c-0.44205 0 -0.87402 0.13104 -1.24131 0.37653 -0.3675 0.24549 -0.6539400000000001 0.5945100000000001 -0.8229900000000001 1.00275 -0.16926000000000002 0.40824 -0.21336 0.85764 -0.12726 1.29108 0.08631 0.43344 0.29904000000000003 0.8316000000000001 0.6115200000000001 1.14408 0.31248 0.31248 0.7106399999999999 0.52521 1.14408 0.6115200000000001 0.43344 0.08610000000000001 0.88263 0.04179 1.29108 -0.12726 0.40824 -0.16905 0.7572599999999999 -0.45549000000000006 1.00275 -0.8229900000000001 0.24549 -0.36729 0.37653 -0.79947 0.37653 -1.24131 0.00042 -0.29358 -0.05691 -0.58443 -0.16905 -0.85575 -0.11193 -0.27132 -0.27657000000000004 -0.5178600000000001 -0.48426 -0.72534 -0.20748 -0.20769 -0.45402000000000003 -0.37233000000000005 -0.72534 -0.48426 -0.27132 -0.11214000000000002 -0.5621700000000001 -0.16968 -0.85575 -0.16905Z" stroke-width="2.1"></path>
      <path id="Vector_10" fill="#E9CFB4" d="M114.5214 182.22750000000002c1.2339600000000002 0 2.2344000000000004 -1.00044 2.2344000000000004 -2.2344000000000004 0 -1.2339600000000002 -1.00044 -2.2344000000000004 -2.2344000000000004 -2.2344000000000004 -1.23417 0 -2.2344000000000004 1.00044 -2.2344000000000004 2.2344000000000004 0 1.2339600000000002 1.00023 2.2344000000000004 2.2344000000000004 2.2344000000000004Z" stroke-width="2.1"></path>
      <path id="Vector_11" fill="#E9CFB4" d="M136.02750000000003 171.57000000000002c-0.44184 0 -0.87402 0.13104 -1.24131 0.37653 -0.3675 0.24549 -0.6539400000000001 0.5945100000000001 -0.8229900000000001 1.00275 -0.16905 0.40824 -0.21336 0.85764 -0.12726 1.29108 0.08631 0.43344 0.29904000000000003 0.83139 0.6115200000000001 1.14387 0.31248 0.31269 0.7106399999999999 0.52542 1.14408 0.6115200000000001 0.43344 0.08631 0.8828400000000001 0.042 1.29108 -0.12705 0.40824 -0.16905 0.7572599999999999 -0.45549000000000006 1.00275 -0.8229900000000001 0.24549 -0.3675 0.37653 -0.79947 0.37653 -1.24131 -0.009240000000000002 -0.58968 -0.24759000000000003 -1.1526900000000002 -0.6646500000000001 -1.5697500000000002s-0.98007 -0.65541 -1.5697500000000002 -0.6646500000000001Z" stroke-width="2.1"></path>
      <path id="Vector_12" fill="#E9CFB4" d="M163.11960000000002 180.9108c1.2339600000000002 0 2.2344000000000004 -1.00044 2.2344000000000004 -2.2344000000000004 0 -1.2339600000000002 -1.00044 -2.2344000000000004 -2.2344000000000004 -2.2344000000000004 -1.2339600000000002 0 -2.2344000000000004 1.00044 -2.2344000000000004 2.2344000000000004 0 1.2339600000000002 1.00044 2.2344000000000004 2.2344000000000004 2.2344000000000004Z" stroke-width="2.1"></path>
      <path id="Vector_13" fill="#E9CFB4" d="M174.96990000000002 156.8511c1.2339600000000002 0 2.2344000000000004 -1.00044 2.2344000000000004 -2.2344000000000004 0 -1.2339600000000002 -1.00044 -2.2344000000000004 -2.2344000000000004 -2.2344000000000004 -1.23417 0 -2.2344000000000004 1.00044 -2.2344000000000004 2.2344000000000004 0 1.2339600000000002 1.00023 2.2344000000000004 2.2344000000000004 2.2344000000000004Z" stroke-width="2.1"></path>
      <path id="Vector_14" fill="#E9CFB4" d="M92.778 198.9057c-0.44205 0 -0.87402 0.13104 -1.24152 0.37653 -0.36729 0.24549 -0.65373 0.5945100000000001 -0.82278 1.00275 -0.16926000000000002 0.40824 -0.21336 0.85764 -0.12726 1.29108 0.08631 0.43344 0.29904000000000003 0.83139 0.6115200000000001 1.14387 0.31248 0.31248 0.7106399999999999 0.52542 1.14408 0.6115200000000001 0.43344 0.08631 0.88263 0.042 1.2908700000000002 -0.12705 0.40845000000000004 -0.16905 0.7572599999999999 -0.45549000000000006 1.00275 -0.8229900000000001 0.24570000000000003 -0.3675 0.37674 -0.79947 0.37674 -1.24131 -0.009240000000000002 -0.58968 -0.24759000000000003 -1.1526900000000002 -0.6646500000000001 -1.5697500000000002s-0.98007 -0.65541 -1.5697500000000002 -0.6646500000000001Z" stroke-width="2.1"></path>
      <path id="Vector_15" fill="#E9CFB4" d="M97.2069 155.4546c1.2339600000000002 0 2.2344000000000004 -1.00044 2.2344000000000004 -2.2344000000000004 0 -1.2339600000000002 -1.00044 -2.2344000000000004 -2.2344000000000004 -2.2344000000000004 -1.23417 0 -2.2344000000000004 1.00044 -2.2344000000000004 2.2344000000000004 0 1.2339600000000002 1.00023 2.2344000000000004 2.2344000000000004 2.2344000000000004Z" stroke-width="2.1"></path>
      <path id="Subtract" fill="#E9CFB4" fill-rule="evenodd" d="m186.5808 54.39 3.8304000000000005 -10.094700000000001c-2.47002 -3.45975 -3.80814 -7.59948 -3.8304000000000005 -11.8503 0 -12.1296 10.773 -21.945 24.059700000000003 -21.945 13.2867 0 24.019800000000004 9.8154 24.019800000000004 21.945 0 12.1296 -10.773 21.945 -24.059700000000003 21.945 -4.957050000000001 0.02667 -9.81267 -1.40217 -13.965000000000002 -4.1097L186.5808 54.39Zm15.72333 -20.63775c0.25830000000000003 -0.38703 0.39627 -0.84189 0.39627 -1.3072500000000002 -0.0010500000000000002 -0.6251700000000001 -0.25032 -1.22409 -0.6930000000000001 -1.66551 -0.44268 -0.44142000000000003 -1.04244 -0.68922 -1.6674000000000002 -0.68859 -0.46536 0.0012599999999999998 -0.9198000000000001 0.14049 -1.3062 0.39984000000000003 -0.38619000000000003 0.25935 -0.6871200000000001 0.62748 -0.86415 1.05777 -0.17724 0.43029 -0.22302000000000002 0.9034200000000001 -0.13146000000000002 1.35954 0.09156 0.45633 0.31626000000000004 0.8752800000000001 0.64575 1.2037200000000001 0.32949000000000006 0.32865 0.74886 0.5523 1.2054 0.6426000000000001 0.45654000000000006 0.09029999999999999 0.9294600000000001 0.04326 1.35933 -0.13503 0.42966000000000004 -0.17829 0.79695 -0.48006000000000004 1.05546 -0.86709Zm10.65057 -1.3072500000000002c0 0.46557000000000004 -0.1386 0.9208500000000001 -0.39690000000000003 1.3078800000000002 -0.25830000000000003 0.38724000000000003 -0.6258 0.6888000000000001 -1.0563 0.86709 -0.4305 0.17808000000000002 -0.903 0.2247 -1.3608 0.13398 -0.45612 -0.09093 -0.87549 -0.315 -1.2047700000000001 -0.6442800000000001 -0.32928 -0.32928 -0.55335 -0.74865 -0.6442800000000001 -1.2054 -0.09072000000000001 -0.45654000000000006 -0.04410000000000001 -0.9298800000000002 0.13398 -1.36017 0.17829 -0.43008 0.47985000000000005 -0.7977900000000001 0.86709 -1.05651 0.38703 -0.25851 0.84168 -0.39669000000000004 1.3078800000000002 -0.39669000000000004 0.6237 0.0010500000000000002 1.2222 0.24948 1.6632000000000002 0.6906900000000001 0.441 0.44121000000000005 0.6888000000000001 1.0395 0.6909000000000001 1.66341Zm9.897300000000001 1.3078800000000002c0.25830000000000003 -0.38703 0.39690000000000003 -0.8423100000000001 0.39690000000000003 -1.3078800000000002 -0.0021000000000000003 -0.62391 -0.2499 -1.2222 -0.6909000000000001 -1.66341 -0.441 -0.44121000000000005 -1.0395 -0.68964 -1.6632000000000002 -0.6906900000000001 -0.4662 0 -0.9198000000000001 0.13818 -1.3083 0.39669000000000004 -0.3864 0.25872 -0.6888000000000001 0.62643 -0.8673 1.05651 -0.17850000000000002 0.43029 -0.2247 0.90363 -0.1323 1.36017 0.09029999999999999 0.45675 0.315 0.8761200000000001 0.6426000000000001 1.2054 0.3297 0.32928 0.7497 0.55335 1.2054 0.6442800000000001 0.45780000000000004 0.09072000000000001 0.9303 0.04410000000000001 1.3608 -0.13398 0.4305 -0.17829 0.798 -0.47985000000000005 1.0563 -0.86709Z" clip-rule="evenodd" stroke-width="2.1"></path>
      <path id="Vector_16" fill="#E9CFB4" d="M343.8645 148.512c0 0.83643 -0.2478 1.65417 -0.7119000000000001 2.3496900000000003 -0.4662 0.69552 -1.1256000000000002 1.23774 -1.8984 1.5577800000000002 -0.7728 0.32004000000000005 -1.6233000000000002 0.40383 -2.4444 0.24065999999999999 -0.8211 -0.16317 -1.5729 -0.5659500000000001 -2.1651 -1.15752 -0.5922 -0.59157 -0.9954 -1.34505 -1.1571000000000002 -2.16552 -0.1638 -0.82047 -0.0798 -1.67076 0.23940000000000003 -2.44356 0.32130000000000003 -0.7728 0.8631 -1.43346 1.5582 -1.8981900000000003 0.6951 -0.46473000000000003 1.5141 -0.71274 2.3499 -0.71274 1.1214000000000002 0.0006299999999999999 2.1966 0.44625 2.9904 1.23942 0.7917000000000001 0.79296 1.2389999999999999 1.86837 1.2389999999999999 2.98998Z" stroke-width="2.1"></path>
      <path id="Vector_17" fill="#E9CFB4" d="M183.5883 384.1992 146.601 383.25c-0.32466 -0.029400000000000003 -0.65163 0.0189 -0.95403 0.14070000000000002 -0.3024 0.1218 -0.57162 0.315 -0.78561 0.5607000000000001 -0.2142 0.24570000000000003 -0.36708 0.5376000000000001 -0.44604000000000005 0.8547 -0.07896 0.315 -0.08211000000000002 0.6468 -0.00882 0.9639000000000001l1.6800000000000002 6.8628c7.60704 0.17640000000000003 15.217440000000002 -0.1428 22.7829 -0.9576000000000001 -6.932100000000001 2.8371 -14.1393 4.9475999999999996 -21.5061 6.300000000000001l3.4314 9.975c0.07454999999999999 0.315 0.22386 0.609 0.43533000000000005 0.8547 0.21147 0.2478 0.47922 0.4389 0.78015 0.5607000000000001 0.30114 0.11970000000000001 0.62706 0.168 0.9500400000000001 0.1365 0.32319000000000003 -0.0315 0.6342 -0.1386 0.90678 -0.315 11.18775 -5.5356000000000005 21.499380000000002 -12.6882 30.6033 -21.2268 0.36204000000000003 -0.2247 0.64449 -0.5586000000000001 0.8072400000000001 -0.9534 0.16296000000000002 -0.3927 0.19824 -0.8274 0.1008 -1.2432 -0.09723000000000001 -0.41580000000000006 -0.32235 -0.7896000000000001 -0.64344 -1.0710000000000002 -0.32109000000000004 -0.27930000000000005 -0.72219 -0.4536 -1.1466 -0.4935Z" stroke-width="2.1"></path>
    </g>
    <g id="color 1">
      <path id="Vector_18" fill="#5A6142" d="M257.3634 82.4775H154.9002c-3.1863300000000003 -0.00147 -6.34179 0.6251700000000001 -9.28578 1.8440100000000001 -2.94399 1.2188400000000001 -5.61897 3.0057300000000002 -7.87185 5.259030000000001 -2.25309 2.25309 -4.03977 4.92828 -5.2584 7.87227 -1.21842 2.9442 -1.8448499999999999 6.09966 -1.8431700000000002 9.28599v16.4766h10.7688v-14.124600000000001c0.011970000000000001 -2.23062 0.47103 -4.43604 1.3498800000000002 -6.48606 0.87885 -2.05023 2.15985 -3.90327 3.7671900000000003 -5.4499200000000005 1.60713 -1.54665 3.5082600000000004 -2.7554100000000004 5.59062 -3.55467 2.08236 -0.79947 4.30395 -1.17327 6.53331 -1.09935h95.6802c2.2281 -0.07035000000000001 4.4478 0.30576000000000003 6.5289 1.1064900000000002 2.0811 0.8007299999999999 3.9795000000000003 2.0097 5.586 3.5555100000000004 1.6065 1.54602 2.8875 3.3978 3.7674000000000003 5.446350000000001 0.8778 2.04855 1.3398 4.25229 1.3545 6.48165v106.533l10.0548 -22.1046V106.73880000000001c0.0021000000000000003 -3.1863300000000003 -0.6258 -6.34158 -1.8438 -9.285570000000002 -1.218 -2.94399 -3.0051 -5.61897 -5.2584 -7.87206 -2.2533 -2.25309 -4.9287 -4.04019 -7.870800000000001 -5.259030000000001 -2.9442 -1.2190500000000002 -6.1005 -1.84569 -9.2862 -1.84464Z" stroke-width="2.1"></path>
      <path id="Vector_19" fill="#5A6142" d="M271.53000000000003 324.7083v13.65c-0.0021000000000000003 4.5717 -1.8165 8.954400000000001 -5.0504999999999995 12.186300000000001 -3.2319 3.2340000000000004 -7.6146 5.0484 -12.186300000000001 5.0504999999999995H158.6109c-4.57107 -0.0021000000000000003 -8.95482 -1.8165 -12.18693 -5.0504999999999995 -3.23232 -3.2319 -5.04882 -7.6146 -5.04987 -12.186300000000001v-107.52000000000001h-10.773v110.5209c-0.00021 3.1856999999999998 0.62706 6.339900000000001 1.84632 9.282 1.2190500000000002 2.9442 3.0061500000000003 5.6175 5.259030000000001 7.8687000000000005 2.25267 2.2533 4.92723 4.0383000000000004 7.87059 5.2563 2.94336 1.218 6.097770000000001 1.8459 9.28326 1.8438h102.5031c3.1856999999999998 0.0021000000000000003 6.3420000000000005 -0.6258 9.2862 -1.8438 2.9421000000000004 -1.218 5.6175 -3.0051 7.870800000000001 -5.2584 2.2533 -2.2533 4.0404 -4.9287 5.2584 -7.870800000000001 1.218 -2.9442 1.8459 -6.1005 1.8438 -9.2862v-16.6383l-10.092600000000001 -0.004200000000000001Z" stroke-width="2.1"></path>
      <path id="Vector_20" fill="#5A6142" d="m343.02660000000003 233.2596 -3.7905 4.4289000000000005c0.28140000000000004 -1.3251000000000002 0.4137 -2.6754000000000002 0.399 -4.0299000000000005 1.1403 -0.042 2.2743 -0.17640000000000003 3.3915 -0.399Z" stroke-width="2.1"></path>
      <path id="Vector_21" fill="#5A6142" d="M78.49380000000001 142.0482c-1.1869200000000002 -1.2957 -1.84233 -2.99103 -1.8354000000000001 -4.748100000000001 0.8714999999999999 0.56511 1.7808 1.06974 2.7216 1.5099 -0.62538 0.9607500000000001 -0.93513 2.0928600000000004 -0.8862 3.2382000000000004Z" stroke-width="2.1"></path>
      <path id="Vector_22" fill="#5A6142" d="m53.3967 185.93820000000002 -0.6867000000000001 12.9675 -2.3541000000000003 -8.059800000000001c0.8841 -1.5162 1.8837000000000002 -3.1059 3.0408 -4.9077Z" stroke-width="2.1"></path>
      <path id="Vector_23" fill="#5A6142" d="M102.91260000000001 180.7113c0.2205 -4.684050000000001 0.10038000000000001 -9.37818 -0.35910000000000003 -14.0448l5.460000000000001 17.7954c-1.6296000000000002 -1.1172000000000002 -3.3453 -2.3541000000000003 -5.1009 -3.7506000000000004Z" stroke-width="2.1"></path>
      <path id="Vector_24" fill="#5A6142" d="M87.99 106.26c-0.06489 -0.6738900000000001 -0.35301 -1.30662 -0.81858 -1.79802 -0.46578 -0.49140000000000006 -1.08213 -0.8131200000000001 -1.75161 -0.91392 -0.66948 -0.1008 -1.35324 0.02478 -1.94313 0.35721 -0.58968 0.33222 -1.0514700000000001 0.85218 -1.3120800000000001 1.47693h-0.399c-0.20454 -0.6484800000000001 -0.61992 -1.2098099999999998 -1.1802000000000001 -1.5951600000000001 -0.56007 -0.38514000000000004 -1.2331200000000002 -0.57225 -1.9116300000000002 -0.5310900000000001 -0.67872 0.04095 -1.3242600000000002 0.30765 -1.83393 0.75768 -0.5096700000000001 0.44982 -0.85449 1.05735 -0.97944 1.72557h-0.1596c-0.19635 -0.76041 -0.6791400000000001 -1.41561 -1.34736 -1.8282600000000002 -0.66801 -0.41265 -1.47 -0.5510400000000001 -2.2379700000000002 -0.38619000000000003 -0.76776 0.16485 -1.44207 0.62034 -1.88202 1.2711299999999999 -0.43974 0.65058 -0.61089 1.4460600000000001 -0.47775000000000006 2.22012 -0.22344 -0.6881700000000001 -0.6846000000000001 -1.27428 -1.30074 -1.65354 -0.61614 -0.37947000000000003 -1.34715 -0.5271 -2.0622000000000003 -0.41664 -0.7150500000000001 0.11025 -1.36752 0.47166 -1.84065 1.01892 -0.47313 0.54747 -0.73584 1.24551 -0.7415100000000001 1.96896 -0.0023100000000000004 0.29673000000000005 0.03801 0.5924100000000001 0.11970000000000001 0.8778 1.5714299999999999 4.73109 2.9030400000000003 9.538620000000002 3.9899999999999998 14.4039 1.3167 6.384 1.9949999999999999 13.2468 0 16.8 3.9501000000000004 -5.7855 4.9475999999999996 -11.6109 4.309200000000001 -12.249300000000002 -6.1446000000000005 -6.0627 -0.7182000000000001 -11.7306 2.1147 -7.381500000000001 1.3566 2.0748 2.1546000000000003 2.0748 2.5935 0.8799 1.8354000000000001 -6.2265 10.573500000000001 -14.8428 13.65 -1.7178L87.99 106.26Z" stroke-width="2.1"></path>
      <path id="Vector_25" fill="#5A6142" d="M348.3732 141.33c-0.014700000000000001 0.37674 -0.1743 0.73311 -0.4452 0.9945600000000001s-0.6342 0.40740000000000004 -1.0101 0.40740000000000004c-0.378 0 -0.7413 -0.14595000000000002 -1.0122 -0.40740000000000004s-0.4305 -0.61782 -0.4452 -0.9945600000000001c0.014700000000000001 -0.37674 0.1743 -0.73311 0.4452 -0.9945600000000001s0.6342 -0.40761000000000003 1.0122 -0.40761000000000003c0.3759 0 0.7392 0.14615999999999998 1.0101 0.40761000000000003s0.4305 0.61782 0.4452 0.9945600000000001Z" stroke-width="2.1"></path>
      <path id="Vector_26" fill="#5A6142" d="M364.014 223.96290000000002c0.6867000000000001 -2.2407 1.0899 -4.5612 1.1969999999999998 -6.9027 0.47880000000000006 -14.490000000000002 -14.2443 -17.8353 -24.538500000000003 -9.3366 5.6259 -3.591 8.857800000000001 5.187 8.2992 10.573500000000001 0 0.9492 0.3234 1.8354000000000001 2.7531 0.21000000000000002 4.2693 -2.9526 7.102200000000001 4.349100000000001 -0.8778 7.620900000000001 -1.5162 0.5984999999999999 -3.1500000000000004 8.0997 -1.2768 17.3565 0.7182000000000001 3.6687000000000003 2.4339 4.2 5.9052 5.3067 9.546600000000002 2.7846 19.084799999999998 9.508799999999999 25.9749 16.0398 18.2343 -35.6811 -17.4762 -40.8681 -17.436300000000003 -40.8681Z" stroke-width="2.1"></path>
    </g>
    <g id="outlines">
      <path id="Vector_27" stroke="#343825" d="M348.3732 141.33c-0.014700000000000001 0.37674 -0.1743 0.73311 -0.4452 0.9945600000000001s-0.6342 0.40740000000000004 -1.0101 0.40740000000000004c-0.378 0 -0.7413 -0.14595000000000002 -1.0122 -0.40740000000000004s-0.4305 -0.61782 -0.4452 -0.9945600000000001c0.014700000000000001 -0.37674 0.1743 -0.73311 0.4452 -0.9945600000000001s0.6342 -0.40761000000000003 1.0122 -0.40761000000000003c0.3759 0 0.7392 0.14615999999999998 1.0101 0.40761000000000003s0.4305 0.61782 0.4452 0.9945600000000001Z" stroke-width="2.1"></path>
      <path id="Vector_28" stroke="#343825" stroke-linecap="round" stroke-linejoin="round" d="m320.00430000000006 308.5887 -6.5835 16.119600000000002" stroke-width="2.1"></path>
      <path id="Vector_29" stroke="#343825" stroke-linecap="round" stroke-linejoin="round" d="M141.4098 123.2154V109.053c0.0105 -2.23146 0.46851 -4.43814 1.34673 -6.48942 0.8782200000000001 -2.05128 2.1590100000000003 -3.9057900000000005 3.76656 -5.45349 1.60734 -1.5477 3.50889 -2.7573 5.59188 -3.5574 2.0832 -0.7998900000000001 4.30563 -1.1741100000000002 6.53583 -1.1001900000000002h95.6802c2.2281 -0.07035000000000001 4.4499 0.30618000000000006 6.531 1.10754 2.0811 0.80115 3.9816 2.01117 5.588100000000001 3.55824 1.6065 1.5470700000000002 2.8854 3.40011 3.7653 5.4497100000000005 0.8799 2.04981 1.3398 4.25481 1.3524 6.48501v106.5708" stroke-width="2.1"></path>
      <path id="Vector_30" stroke="#343825" stroke-linecap="round" stroke-linejoin="round" d="M281.61 193.4793V106.6989c-0.0021000000000000003 -3.1861200000000003 -0.63 -6.34095 -1.8501 -9.28389 -1.2222 -2.94294 -3.0114 -5.61624 -5.2647 -7.86744 -2.2554000000000003 -2.2512000000000003 -4.932900000000001 -4.03599 -7.8771 -5.2523100000000005 -2.9442 -1.2165300000000001 -6.1005 -1.84044 -9.2862 -1.8366600000000002H154.8603c-3.18738 0.00084 -6.34326 0.62958 -9.287460000000001 1.8503100000000001 -2.94441 1.22073 -5.619180000000001 3.00951 -7.87206 5.26428 -2.25267 2.25477 -4.03935 4.93122 -5.25735 7.87647 -1.21821 2.94546 -1.84422 6.1017600000000005 -1.84233 9.28914v16.4766" stroke-width="2.1"></path>
      <path id="Vector_31" stroke="#343825" stroke-linecap="round" stroke-linejoin="round" d="M333.69 217.1001h-31.281600000000005" stroke-width="2.1"></path>
      <path id="Vector_32" stroke="#343825" stroke-linecap="round" stroke-linejoin="round" d="M365.1711 217.0791h20.0697c1.2096 -0.0021000000000000003 2.4066 0.23520000000000002 3.5238 0.6972 1.1193000000000002 0.45990000000000003 2.1336 1.1382 2.9904 1.9929 0.8568 0.8526000000000001 1.5351000000000001 1.8669 1.9992 2.9841 0.4641 1.1172000000000002 0.7035000000000001 2.3142000000000005 0.7035000000000001 3.5238v52.86750000000001" stroke-width="2.1"></path>
      <path id="Vector_33" stroke="#343825" stroke-linecap="round" stroke-linejoin="round" d="M270.90000000000003 217.1001h-6.195l-26.565 -8.1795 8.4588 25.935v80.64c0.0021000000000000003 2.4444 0.9723 4.787999999999999 2.7006 6.516300000000001 1.7283 1.7283 4.0719 2.6985 6.516300000000001 2.7006h95.0313" stroke-width="2.1"></path>
      <path id="Vector_34" stroke="#343825" stroke-linecap="round" stroke-linejoin="round" d="M166.5909 152.46v-20.027700000000003c-0.0010500000000000002 -2.44419 -0.9725100000000001 -4.78779 -2.70081 -6.51609s-4.0719 -2.6997600000000004 -6.51609 -2.70081H91.182" stroke-width="2.1"></path>
      <path id="Vector_35" stroke="#343825" stroke-linecap="round" stroke-linejoin="round" d="M271.56780000000003 324.7083v13.65c-0.0021000000000000003 4.5717 -1.8165 8.954400000000001 -5.0504999999999995 12.186300000000001 -3.2319 3.2340000000000004 -7.6146 5.0484 -12.186300000000001 5.0504999999999995H158.6109c-4.571280000000001 -0.0021000000000000003 -8.95482 -1.8165 -12.18714 -5.0504999999999995 -3.23211 -3.2319 -5.04861 -7.6146 -5.04966 -12.186300000000001v-107.52000000000001" stroke-width="2.1"></path>
      <path id="Vector_36" stroke="#343825" stroke-linecap="round" stroke-linejoin="round" d="M130.6011 230.8257v110.5209c-0.00189 3.1856999999999998 0.6241200000000001 6.3420000000000005 1.84254 9.2862 1.21842 2.9442 3.0051 5.6196 5.25819 7.8729000000000005 2.25309 2.2533 4.92807 4.0404 7.87227 5.2605 2.9442 1.218 6.09966 1.8459 9.2862 1.8438h102.5031c3.1856999999999998 0.0021000000000000003 6.3420000000000005 -0.6258 9.2862 -1.8438 2.9421000000000004 -1.218 5.6175 -3.0051 7.870800000000001 -5.2584 2.2533 -2.2533 4.0404 -4.9287 5.2584 -7.870800000000001 1.218 -2.9442 1.8459 -6.1005 1.8438 -9.2862v-16.6383" stroke-width="2.1"></path>
      <path id="Vector_37" stroke="#343825" stroke-linecap="round" stroke-linejoin="round" d="M67.8405 123.2154H27.9006c-2.44314 0.00273 -4.7850600000000005 0.9750300000000001 -6.5121 2.7031199999999997 -1.7268510000000001 1.72809 -2.6974080000000002 4.07085 -2.698521 6.51378v55.230000000000004" stroke-width="2.1"></path>
      <path id="Vector_38" stroke="#343825" stroke-linecap="round" stroke-linejoin="round" d="M119.11200000000001 230.8257h29.364300000000004l26.5335 8.1396 -8.4189 -25.8951V183.4644" stroke-width="2.1"></path>
      <path id="Vector_39" stroke="#343825" stroke-linecap="round" stroke-linejoin="round" d="M211.39860000000002 365.61c-8.14716 8.977500000000001 -18.0306 16.2099 -29.052870000000002 21.2562 -11.02206 5.0484 -22.953840000000003 7.8078 -35.07315 8.112300000000001 -12.11931 0.3045 -24.17436 -1.8522 -35.43603 -6.3420000000000005 -11.26146 -4.4877 -21.495390000000004 -11.214 -30.0825 -19.7715 -8.58732 -8.557500000000001 -15.34932 -18.769800000000004 -19.87692 -30.0153 -4.52781 -11.245500000000002 -6.72693 -23.293200000000002 -6.46485 -35.4144 0.26229 -12.1191 2.9803200000000003 -24.059700000000003 7.990080000000001 -35.099399999999996 5.009760000000001 -11.0397 12.20709 -20.949600000000004 21.156240000000004 -29.127" stroke-width="2.1"></path>
      <path id="Vector_40" stroke="#343825" stroke-linecap="round" stroke-linejoin="round" d="M183.5883 384.1992 146.601 383.25c-0.32466 -0.029400000000000003 -0.65163 0.0189 -0.95403 0.14070000000000002 -0.3024 0.1218 -0.57162 0.315 -0.78561 0.5607000000000001 -0.2142 0.24570000000000003 -0.36708 0.5376000000000001 -0.44604000000000005 0.8547 -0.07896 0.315 -0.08211000000000002 0.6468 -0.00882 0.9639000000000001l1.6800000000000002 6.8628c7.60704 0.17640000000000003 15.217440000000002 -0.1428 22.7829 -0.9576000000000001 -6.932100000000001 2.8371 -14.1393 4.9475999999999996 -21.5061 6.300000000000001l3.4314 9.975c0.07454999999999999 0.315 0.22386 0.609 0.43533000000000005 0.8547 0.21147 0.2478 0.47922 0.4389 0.78015 0.5607000000000001 0.30114 0.11970000000000001 0.62706 0.168 0.9500400000000001 0.1365 0.32319000000000003 -0.0315 0.6342 -0.1386 0.90678 -0.315 11.18775 -5.5356000000000005 21.499380000000002 -12.6882 30.6033 -21.2268 0.36204000000000003 -0.2247 0.64449 -0.5586000000000001 0.8072400000000001 -0.9534 0.16296000000000002 -0.3927 0.19824 -0.8274 0.1008 -1.2432 -0.09723000000000001 -0.41580000000000006 -0.32235 -0.7896000000000001 -0.64344 -1.0710000000000002 -0.32109000000000004 -0.27930000000000005 -0.72219 -0.4536 -1.1466 -0.4935v0Z" stroke-width="2.1"></path>
      <path id="Vector_41" stroke="#343825" stroke-linecap="round" stroke-linejoin="round" d="M339.6351 233.61870000000002c1.1382 -0.021 2.2743 -0.1428 3.3915 -0.35910000000000003l-3.7905 4.389" stroke-width="2.1"></path>
      <path id="Vector_42" stroke="#343825" stroke-linecap="round" stroke-linejoin="round" d="M312.8223 275.8329c-13.566 -3.1668000000000003 -26.455800000000004 -8.7339 -38.0625 -16.4388 -4.9623 -3.1563 -8.618400000000001 -7.998900000000001 -10.2984 -13.6353 -1.6779000000000002 -5.636400000000001 -1.2663 -11.690700000000001 1.1613000000000002 -17.047800000000002l19.4292 -42.770700000000005c10.1094 0.6825000000000001 18.291000000000004 2.6586000000000003 25.775399999999998 11.4093l-16.59 38.9424c7.4613000000000005 4.349100000000001 16.6782 8.9418 25.2168 10.6134 11.7096 2.2911 20.189400000000003 -1.3692000000000002 20.189400000000003 -13.2867 -5.3067 0.1596 -14.0847 -1.7955 -4.9077 -18.513600000000004 9.177000000000001 -16.7181 15.2817 -3.7800000000000002 14.523600000000002 3.2718000000000003 0.0399 1.2368999999999999 0.6783 1.5561 2.7531 0.11970000000000001 4.2693 -2.9547000000000003 7.1232 4.41 -0.8778 7.620900000000001 -1.512 0.609 -3.1500000000000004 8.1018 -1.2768 17.3565 1.4301000000000001 7.0224 6.348300000000001 2.5893 20.8278 12.600000000000001 16.0839 11.13 27.7053 27.2412 34.79280000000001 39.2196 2.5347000000000004 4.2777 3.4692 9.3177 2.6355 14.221200000000001 -0.8337000000000001 4.901400000000001 -3.3789000000000002 9.3513 -7.1841 12.5517l-35.5509 29.7654c-5.0736 -1.5624 -9.5991 -4.5381 -13.0389 -8.5806 -3.4419 -4.0425 -5.6594999999999995 -8.983799999999999 -6.3924 -14.2422l31.71 -27.411300000000004 -18.6732 -19.828200000000002" stroke-width="2.1"></path>
      <path id="Vector_43" stroke="#343825" stroke-linecap="round" stroke-linejoin="round" d="M78.49380000000001 142.0482c-1.1869200000000002 -1.2957 -1.84233 -2.99103 -1.8354000000000001 -4.748100000000001 0.8714999999999999 0.56511 1.7808 1.06974 2.7216 1.5099" stroke-width="2.1"></path>
      <path id="Vector_44" stroke="#343825" stroke-linecap="round" stroke-linejoin="round" d="M76.8978 121.26030000000002c1.8354000000000001 -6.2244 10.6134 -14.8428 13.65 -1.7157l0.6783 4.2294c2.1147 19.32 -7.0623000000000005 17.2767 -11.8503 15.042300000000001 0 0 -3.3474000000000004 4.949700000000001 2.7825 5.9766 0.9828000000000001 0.1638 1.6506 0.17850000000000002 1.8900000000000001 0.21000000000000002 -4.787999999999999 7.0224 -13.65 7.4613000000000005 -25.2966 3.5112 10.8297 -6.1362000000000005 14.7273 -19.389300000000002 13.406400000000001 -20.7081 -6.09 -6.0732 -0.7223999999999999 -11.7285 2.1147 -7.381500000000001 1.3545 2.0769 2.0748 2.0349 2.5935 0.9177000000000001l0.0315 -0.0819Z" stroke-width="2.1"></path>
      <path id="Vector_45" stroke="#343825" stroke-linecap="round" stroke-linejoin="round" d="M50.345400000000005 190.9572c0.9177000000000001 -1.5561 1.9341000000000002 -3.2235 3.0513000000000003 -5.019l-0.6867000000000001 13.0074" stroke-width="2.1"></path>
      <path id="Vector_46" stroke="#343825" stroke-linecap="round" stroke-linejoin="round" d="M102.91260000000001 180.7113c0.2205 -4.684050000000001 0.10038000000000001 -9.37818 -0.35910000000000003 -14.0448l5.460000000000001 17.7954" stroke-width="2.1"></path>
      <path id="Vector_47" stroke="#343825" stroke-linecap="round" stroke-linejoin="round" d="M58.7433 148.512c-2.14788 1.23354 -4.457879999999999 2.16027 -6.8628 2.7531C29.8956 156.8112 18.0453 185.5791 12.39 206.367c-1.468992 5.390700000000001 -0.814842 11.1384 1.827714 16.0608 2.642535 4.9224 7.072296000000001 8.6457 12.376686 10.3992 15.561630000000001 5.0064 31.75011 7.8015 48.089999999999996 8.2992 4.55259 -7.629300000000001 5.928090000000001 -16.7433 3.8304000000000005 -25.3764 -12.39231 -1.0731000000000002 -24.66387 -3.2508000000000004 -36.668099999999995 -6.510000000000001 2.27493 -6.34179 5.12673 -12.46161 8.519700000000002 -18.2826 2.9862 10.0569 1.8438 6.1824 5.04 17.1255 13.167 2.1546000000000003 28.6881 3.1122 43.3314 -0.5984999999999999 2.35116 -8.748600000000001 3.75564 -17.724420000000002 4.189500000000001 -26.772900000000003 7.12866 5.64984 15.116010000000001 10.122000000000002 23.6586 13.2468 3.2886 1.28478 6.80148 1.89735 10.33074 1.80138 3.5294700000000003 -0.09576000000000001 7.003710000000001 -0.8983800000000001 10.21776 -2.3599799999999997 14.412300000000002 -6.5646 23.421300000000002 -11.491200000000001 40.937400000000004 -24.6183 0.11970000000000001 -10.4139 -4.5087 -17.6757 -14.0049 -21.7056 -11.172 8.3391 -24.4188 16.8777 -36.5883 21.7056 -8.434020000000002 -6.3063 -17.34453 -11.94921 -26.651100000000003 -16.8777 -10.2522 -4.9959 -24.658200000000004 -6.6234 -26.772900000000003 -6.9027" stroke-width="2.1"></path>
      <path id="Vector_48" stroke="#343825" stroke-linecap="round" stroke-linejoin="round" d="M297.6624 167.3196c0.168 -0.47796 0.4494 -0.9093 0.8169000000000001 -1.2587400000000002 0.3675 -0.34923000000000004 0.8127000000000001 -0.60648 1.2978 -0.75096 2.1126 -0.5586000000000001 5.2248 3.8703000000000003 4.2273 9.575999999999999 -0.5145 3.0975 -2.6922 4.4961 -3.9312000000000005 -0.1743" stroke-width="2.1"></path>
      <path id="Vector_49" stroke="#343825" stroke-linecap="round" stroke-linejoin="round" d="M301.9695 166.2675c0.35280000000000006 -0.34965 0.7938000000000001 -0.5976600000000001 1.2768 -0.7182000000000001 2.1189 -0.5439 5.3466 2.6733 4.588500000000001 8.4588 -0.39480000000000004 3.0051 -2.2008 3.7380000000000004 -3.7086 0.0231" stroke-width="2.1"></path>
      <path id="Vector_50" stroke="#343825" stroke-linecap="round" stroke-linejoin="round" d="M287.2086 186.06c4.748100000000001 -8.5386 4.3848 -10.9326 5.6259 -15.002400000000002 0.5963999999999999 -1.9551000000000003 1.4322000000000001 -3.6792000000000002 3.1500000000000004 -4.1097 2.1 -0.5292 4.773300000000001 3.0303000000000004 3.9899999999999998 8.61 -0.3234 2.3100000000000005 -3.4293 1.8354000000000001 -3.9899999999999998 -4.0299000000000005" stroke-width="2.1"></path>
      <path id="Vector_51" stroke="#343825" stroke-linecap="round" stroke-linejoin="round" d="M309.39090000000004 195.7935c1.5162 -3.3117 12.093900000000001 -22.6296 10.892700000000001 -23.1819 -1.3125 -0.6048 -8.4588 5.7456000000000005 -8.4588 5.7456000000000005s-8.379000000000001 1.1571000000000002 -7.820400000000001 6.510000000000001" stroke-width="2.1"></path>
      <path id="Vector_52" stroke="#343825" stroke-linecap="round" stroke-linejoin="round" d="M311.7849 178.3572c3.5112 -13.9251 0.8400000000000001 -25.62 0.11970000000000001 -23.541000000000004 -1.3608 3.948 -3.0324 14.490000000000002 -4.0698 19.151999999999997" stroke-width="2.1"></path>
      <path id="Vector_53" stroke="#343825" stroke-linecap="round" stroke-linejoin="round" d="M294.0714 173.9682c0.7959 -0.21441 1.6422 -0.16359 2.4066 0.14490000000000003" stroke-width="2.1"></path>
      <path id="Vector_54" stroke="#343825" stroke-linecap="round" stroke-linejoin="round" d="M178.92000000000002 149.5893c7.660800000000001 -1.9551000000000003 46.4436 3.192 44.76780000000001 6.982500000000001 -9.6159 1.47 -24.049200000000003 0.016800000000000002 -32.358900000000006 4.787999999999999 -0.5586000000000001 0.32130000000000003 -2.52 1.6800000000000002 -3.591 2.4339" stroke-width="2.1"></path>
      <path id="Vector_55" stroke="#343825" stroke-linecap="round" stroke-linejoin="round" d="M179.9973 149.3898c14.922600000000001 -3.5112 31.441200000000002 -23.0622 17.556 -3.2718000000000003 -1.3167 2.1945 -1.9551000000000003 3.4314 -0.0798 3.8703000000000003" stroke-width="2.1"></path>
      <path id="Vector_56" stroke="#343825" stroke-linecap="round" stroke-linejoin="round" d="M191.88750000000002 161.0406c7.581 -2.9925 47.36130000000001 7.0224 19.7505 -3.591" stroke-width="2.1"></path>
      <path id="Vector_57" stroke="#343825" stroke-linecap="round" stroke-linejoin="round" d="M191.9274 161.00070000000002c3.1500000000000004 -1.6800000000000002 33.316500000000005 10.5 17.3565 0.4389" stroke-width="2.1"></path>
      <path id="Vector_58" stroke="#343825" stroke-linecap="round" stroke-linejoin="round" d="M99.33 230.8257c6.1446000000000005 3.3600000000000003 8.3034 9.3828 6.2244 11.0124 -1.05441 0.5502 -2.2572900000000002 0.7454999999999999 -3.4314 0.5586000000000001" stroke-width="2.1"></path>
      <path id="Vector_59" stroke="#343825" stroke-linecap="round" stroke-linejoin="round" d="M101.64 227.27460000000002c6.1446000000000005 3.3600000000000003 8.2929 9.368100000000002 6.2244 11.0124 -0.49623000000000006 0.3192 -1.05315 0.5355000000000001 -1.6359000000000001 0.63" stroke-width="2.1"></path>
      <path id="Vector_60" stroke="#343825" stroke-linecap="round" stroke-linejoin="round" d="M75.50130000000001 239.6835c6.99741 -1.2579 14.210280000000001 -0.441 20.748 2.3541000000000003" stroke-width="2.1"></path>
      <path id="Vector_61" stroke="#343825" stroke-linecap="round" stroke-linejoin="round" d="M95.8503 234.297c5.8254 3.4314 7.373100000000001 8.2509 5.4264 10.0149 -2.2827 2.0643000000000002 -9.9351 0.9974999999999999 -12.0897 -4.468800000000001" stroke-width="2.1"></path>
      <path id="Vector_62" stroke="#343825" stroke-linecap="round" stroke-linejoin="round" d="M78.69330000000001 217.02030000000002c5.187 -0.1596 25.221 0.7581 25.2966 2.2743 0.08610000000000001 1.7556 -4.6683 2.7531 -4.6683 2.7531" stroke-width="2.1"></path>
      <path id="Vector_63" stroke="#343825" stroke-linecap="round" stroke-linejoin="round" d="M78.7332 217.0602c6.51588 0.47040000000000004 12.92088 1.9383000000000001 18.992400000000004 4.349100000000001 0 0 16.4472 6.300000000000001 23.898000000000003 7.940100000000001 2.4779999999999998 0.5439 -4.620000000000001 3.4713000000000003 -16.8756 0.1596" stroke-width="2.1"></path>
      <path id="Vector_64" stroke="#343825" stroke-linecap="round" stroke-linejoin="round" d="M55.3917 208.08270000000002c-1.53342 0.9166500000000001 -2.8858200000000003 2.1063 -3.9899999999999998 3.5112" stroke-width="2.1"></path>
      <path id="Vector_65" stroke="#343825" stroke-linecap="round" stroke-linejoin="round" d="m98.72310000000002 207.48420000000002 1.4763 10.6932" stroke-width="2.1"></path>
      <path id="Vector_66" stroke="#343825" stroke-linecap="round" stroke-linejoin="round" d="M362.1786 285.2073c-2.6733 6.8628 -5.8653 16.8777 -4.83 23.5011 -12.2451 3.2319 -25.1223 3.1898999999999997 -37.3464 -0.11970000000000001 -10.573500000000001 -23.421300000000002 -8.3391 -40.257000000000005 -1.5561 -51.660000000000004" stroke-width="2.1"></path>
      <path id="Vector_67" stroke="#343825" stroke-linecap="round" stroke-linejoin="round" d="M340.45410000000004 207.9c11.7831 -9.9078 29.5344 -4.2231000000000005 23.52 16.0734 0 0 35.7 5.187 17.4762 40.8576" stroke-width="2.1"></path>
      <path id="Vector_68" stroke="#343825" stroke-linecap="round" stroke-linejoin="round" d="M357.3507 308.7c2.4444 1.1969999999999998 4.636800000000001 2.8497 6.4638 4.8678" stroke-width="2.1"></path>
      <path id="Vector_69" stroke="#343825" stroke-linecap="round" stroke-linejoin="round" d="m355.7148 248.8605 -5.8254 13.2867c-0.3633 0.8211 -0.9849 1.5036 -1.7682 1.9425000000000001 -0.7854 0.4389 -1.6905000000000001 0.6111 -2.5809 0.49140000000000006l-15.2817 -2.1147c-0.6174 -0.08820000000000001 -1.2054 -0.3129 -1.7241 -0.6594s-0.9513 -0.8043 -1.2705 -1.3398c-0.3171 -0.5355000000000001 -0.5103 -1.1361 -0.5649000000000001 -1.7577 -0.0567 -0.6194999999999999 0.029400000000000003 -1.2453 0.2478 -1.8291000000000002l3.7905 -9.9351" stroke-width="2.1"></path>
      <path id="Vector_70" stroke="#343825" stroke-linecap="round" stroke-linejoin="round" d="m90.5835 119.5446 -2.6733 -13.326600000000001c-0.09828 -0.67893 -0.41433000000000003 -1.3078800000000002 -0.90069 -1.79172 -0.48636 -0.48384 -1.11678 -0.7967400000000001 -1.79613 -0.89145 -0.67956 -0.09471 -1.37151 0.03381 -1.97169 0.36624 -0.60018 0.33243 -1.07625 0.8507100000000001 -1.3563900000000002 1.47693 -0.23709000000000002 -0.65457 -0.6791400000000001 -1.21506 -1.2604199999999999 -1.5981 -0.58128 -0.38304000000000005 -1.27071 -0.56826 -1.9658100000000003 -0.5279400000000001 -0.6948900000000001 0.040319999999999995 -1.3582800000000002 0.30408 -1.89126 0.7518 -0.53319 0.44793 -0.90741 1.05567 -1.06701 1.73334 -0.20874 -0.7578900000000001 -0.69909 -1.4074200000000001 -1.37067 -1.8160800000000001s-1.47399 -0.54537 -2.2430100000000004 -0.38241c-0.76902 0.16296000000000002 -1.4468999999999999 0.6134100000000001 -1.89504 1.25937 -0.44814000000000004 0.64575 -0.63273 1.4385000000000001 -0.51618 2.21592 -0.25557 -0.75096 -0.7938000000000001 -1.37298 -1.50045 -1.7335500000000001 -0.7066500000000001 -0.36057 -1.52607 -0.43155 -2.2843800000000005 -0.19803 -0.7581 0.23373 -1.39524 0.75369 -1.7763900000000001 1.4496300000000002 -0.38094 0.69594 -0.47565 1.5128400000000002 -0.26418 2.27745 1.5714299999999999 4.73109 2.9030400000000003 9.538620000000002 3.9899999999999998 14.4039 1.2978 6.300000000000001 1.9761 13.0578 0.0819 16.6488" stroke-width="2.1"></path>
      <path id="Vector_71" stroke="#343825" stroke-linecap="round" stroke-linejoin="round" d="M202.7004 32.445c0 0.46536 -0.13796999999999998 0.92022 -0.39627 1.3072500000000002 -0.25851 0.38703 -0.6258 0.6888000000000001 -1.05546 0.86709 -0.42987000000000003 0.17829 -0.9027900000000001 0.22533000000000003 -1.35933 0.13503 -0.45654000000000006 -0.09029999999999999 -0.8759100000000001 -0.31395 -1.2054 -0.6426000000000001 -0.32949000000000006 -0.32844000000000007 -0.5541900000000001 -0.74739 -0.64575 -1.2037200000000001 -0.09156 -0.45612 -0.04578 -0.92925 0.13146000000000002 -1.35954 0.17703000000000002 -0.43029 0.47796 -0.79842 0.86415 -1.05777 0.3864 -0.25935 0.84084 -0.39858 1.3062 -0.39984000000000003 0.62496 -0.0006299999999999999 1.2247200000000003 0.24717 1.6674000000000002 0.68859 0.44268 0.44142000000000003 0.6919500000000001 1.04034 0.6930000000000001 1.66551v0Z" stroke-width="2.1"></path>
      <path id="Vector_72" stroke="#343825" stroke-linecap="round" stroke-linejoin="round" d="M212.9547 32.445c0 0.46557000000000004 -0.1386 0.9208500000000001 -0.39690000000000003 1.3078800000000002 -0.25830000000000003 0.38724000000000003 -0.6258 0.6888000000000001 -1.0563 0.86709 -0.4305 0.17808000000000002 -0.903 0.2247 -1.3608 0.13398 -0.45612 -0.09093 -0.87549 -0.315 -1.2047700000000001 -0.6442800000000001 -0.32928 -0.32928 -0.55335 -0.74865 -0.6442800000000001 -1.2054 -0.09072000000000001 -0.45654000000000006 -0.04410000000000001 -0.9298800000000002 0.13398 -1.36017 0.17829 -0.43008 0.47985000000000005 -0.7977900000000001 0.86709 -1.05651 0.38703 -0.25851 0.84168 -0.39669000000000004 1.3078800000000002 -0.39669000000000004 0.6237 0.0010500000000000002 1.2222 0.24948 1.6632000000000002 0.6906900000000001 0.441 0.44121000000000005 0.6888000000000001 1.0395 0.6909000000000001 1.66341Z" stroke-width="2.1"></path>
      <path id="Vector_73" stroke="#343825" stroke-linecap="round" stroke-linejoin="round" d="M223.2489 32.445c0 0.46557000000000004 -0.1386 0.9208500000000001 -0.39690000000000003 1.3078800000000002 -0.25830000000000003 0.38724000000000003 -0.6258 0.6888000000000001 -1.0563 0.86709 -0.4305 0.17808000000000002 -0.903 0.2247 -1.3608 0.13398 -0.4557 -0.09093 -0.8757 -0.315 -1.2054 -0.6442800000000001 -0.3276 -0.32928 -0.5523 -0.74865 -0.6426000000000001 -1.2054 -0.0924 -0.45654000000000006 -0.0462 -0.9298800000000002 0.1323 -1.36017 0.17850000000000002 -0.43008 0.48090000000000005 -0.7977900000000001 0.8673 -1.05651 0.3885 -0.25851 0.8421000000000001 -0.39669000000000004 1.3083 -0.39669000000000004 0.6237 0.0010500000000000002 1.2222 0.24948 1.6632000000000002 0.6906900000000001 0.441 0.44121000000000005 0.6888000000000001 1.0395 0.6909000000000001 1.66341Z" stroke-width="2.1"></path>
      <path id="Vector_74" stroke="#343825" stroke-linecap="round" stroke-linejoin="round" d="M347.41560000000004 136.4622h-15.600900000000001c-2.3352000000000004 0 -4.2294 1.89357 -4.2294 4.2294v15.600900000000001c0 2.33583 1.8942 4.2294 4.2294 4.2294h15.600900000000001c2.3352000000000004 0 4.2294 -1.89357 4.2294 -4.2294v-15.600900000000001c0 -2.33583 -1.8942 -4.2294 -4.2294 -4.2294Z" stroke-width="2.1"></path>
      <path id="Vector_75" stroke="#343825" stroke-linecap="round" stroke-linejoin="round" d="M343.8645 148.512c0 0.83643 -0.2478 1.65417 -0.7119000000000001 2.3496900000000003 -0.4662 0.69552 -1.1256000000000002 1.23774 -1.8984 1.5577800000000002 -0.7728 0.32004000000000005 -1.6233000000000002 0.40383 -2.4444 0.24065999999999999 -0.8211 -0.16317 -1.5729 -0.5659500000000001 -2.1651 -1.15752 -0.5922 -0.59157 -0.9954 -1.34505 -1.1571000000000002 -2.16552 -0.1638 -0.82047 -0.0798 -1.67076 0.23940000000000003 -2.44356 0.32130000000000003 -0.7728 0.8631 -1.43346 1.5582 -1.8981900000000003 0.6951 -0.46473000000000003 1.5141 -0.71274 2.3499 -0.71274 1.1214000000000002 0.0006299999999999999 2.1966 0.44625 2.9904 1.23942 0.7917000000000001 0.79296 1.2389999999999999 1.86837 1.2389999999999999 2.98998Z" stroke-width="2.1"></path>
      <path id="Vector_76" stroke="#343825" stroke-linecap="round" stroke-linejoin="round" d="M305.4408 345.177c0 0.6867000000000001 -0.20370000000000002 1.3587 -0.5859000000000001 1.9278000000000002 -0.3801 0.5712 -0.9219 1.0164 -1.5561 1.2789s-1.3335000000000001 0.33180000000000004 -2.0055 0.19740000000000002c-0.6741 -0.13440000000000002 -1.2936 -0.4641 -1.7787 -0.9492 -0.48510000000000003 -0.48510000000000003 -0.8148000000000001 -1.1046 -0.9492 -1.7787 -0.13440000000000002 -0.672 -0.0651 -1.3713000000000002 0.19740000000000002 -2.0055 0.2625 -0.6342 0.7077000000000001 -1.1760000000000002 1.2789 -1.5561 0.5691 -0.3822 1.2411 -0.5859000000000001 1.9278000000000002 -0.5859000000000001 0.9198000000000001 0 1.8039 0.3654 2.4549000000000003 1.0164 0.6489 0.651 1.0164 1.5351000000000001 1.0164 2.4549000000000003v0Z" stroke-width="2.1"></path>
      <path id="Vector_77" stroke="#343825" stroke-linecap="round" stroke-linejoin="round" d="M107.9589 84.2352v17.236800000000002" stroke-width="2.1"></path>
      <path id="Vector_78" stroke="#343825" stroke-linecap="round" stroke-linejoin="round" d="M116.5584 92.8536h-17.236800000000002" stroke-width="2.1"></path>
      <path id="Vector_79" stroke="#343825" stroke-linecap="round" stroke-linejoin="round" d="M348.3333 345.3765c-3.8136 4.5129 -7.068600000000001 9.471 -9.6957 14.763000000000002 -1.5813000000000001 2.6061000000000005 -2.8791 5.376 -3.8703000000000003 8.2593 -2.8077 8.1354 -0.44730000000000003 7.933800000000001 3.8304000000000005 1.5561 10.871699999999999 -16.212 15.9999 -17.7954 19.95 -21.306600000000003" stroke-width="2.1"></path>
      <path id="Vector_80" stroke="#343825" stroke-linecap="round" stroke-linejoin="round" d="M335.6451 366.00480000000005c-2.5536 1.7661 -5.3298 3.1878 -8.2551 4.2252 -0.8400000000000001 0.2268 -2.1525 -0.4368 1.9152000000000002 -3.9501000000000004 0.8778 -0.7581 4.5066 -4.0341000000000005 5.7456000000000005 -5.2668 2.5914 -2.3729999999999998 5.044200000000001 -4.8909 7.3500000000000005 -7.541100000000001" stroke-width="2.1"></path>
      <path id="Vector_81" stroke="#343825" stroke-linecap="round" stroke-linejoin="round" d="M345.4206 349.0872c1.7157 -3.591 -6.5835 -1.2054 -10.2144 -0.63 -3.2718000000000003 0.5124 -7.14 -0.1134 1.0773000000000001 -4.1496 4.2903 -2.0601000000000003 8.2026 -4.8279 11.571 -8.19" stroke-width="2.1"></path>
      <path id="Vector_82" stroke="#343825" stroke-linecap="round" stroke-linejoin="round" d="M190.4112 44.295300000000005 186.5808 54.39l10.0548 -4.1097c4.15233 2.7075299999999998 9.007950000000001 4.13637 13.965000000000002 4.1097 13.2867 0 24.059700000000003 -9.8154 24.059700000000003 -21.945 0 -12.1296 -10.7331 -21.945 -24.019800000000004 -21.945 -13.2867 0 -24.059700000000003 9.8154 -24.059700000000003 21.945 0.022260000000000002 4.25082 1.3603800000000001 8.39055 3.8304000000000005 11.8503Z" stroke-width="2.1"></path>
      <path id="Vector_83" stroke="#343825" stroke-linecap="round" stroke-linejoin="round" d="m377.6598 301.60620000000006 3.0324 -2.3541000000000003" stroke-width="2.1"></path>
      <path id="Vector_84" stroke="#343825" stroke-linecap="round" stroke-linejoin="round" d="m137.46390000000002 168.7812 3.192 2.2743" stroke-width="2.1"></path>
      <path id="Vector_85" stroke="#343825" stroke-linecap="round" stroke-linejoin="round" d="m41.7858 209.1999 -1.5162 3.6309000000000005" stroke-width="2.1"></path>
      <path id="Vector_86" stroke="#343825" d="M70.4739 218.8557c-0.44184 0 -0.87402 0.1302 -1.24131 0.3759 -0.3675 0.24570000000000003 -0.6539400000000001 0.5942999999999999 -0.8229900000000001 1.0038 -0.16905 0.40740000000000004 -0.21336 0.8568 -0.12726 1.2915 0.08631 0.4326 0.29904000000000003 0.8316000000000001 0.6115200000000001 1.1424 0.31248 0.3129 0.7106399999999999 0.525 1.14408 0.6132 0.43344 0.08610000000000001 0.88263 0.042 1.29108 -0.1281 0.40824 -0.1701 0.7572599999999999 -0.4557 1.00275 -0.8232 0.24549 -0.3675 0.37653 -0.8001 0.37653 -1.2411 -0.009240000000000002 -0.5901000000000001 -0.24759000000000003 -1.1529 -0.6646500000000001 -1.5708 -0.41706000000000004 -0.41580000000000006 -0.98007 -0.6552 -1.5697500000000002 -0.6636000000000001Z" stroke-width="2.1"></path>
      <path id="Vector_87" stroke="#343825" d="M38.035199999999996 231.06510000000003c1.2339600000000002 0 2.2344000000000004 -0.9996 2.2344000000000004 -2.2344000000000004 0 -1.2348 -1.00044 -2.2344000000000004 -2.2344000000000004 -2.2344000000000004 -1.23417 0 -2.2344000000000004 0.9996 -2.2344000000000004 2.2344000000000004 0 1.2348 1.00023 2.2344000000000004 2.2344000000000004 2.2344000000000004Z" stroke-width="2.1"></path>
      <path id="Vector_88" stroke="#343825" d="M22.2348 201.18c1.2339600000000002 0 2.2344000000000004 -1.00044 2.2344000000000004 -2.2344000000000004 0 -1.2339600000000002 -1.00044 -2.2344000000000004 -2.2344000000000004 -2.2344000000000004 -1.2339600000000002 0 -2.2344209999999998 1.00044 -2.2344209999999998 2.2344000000000004 0 1.2339600000000002 1.000461 2.2344000000000004 2.2344209999999998 2.2344000000000004Z" stroke-width="2.1"></path>
      <path id="Vector_89" stroke="#343825" d="M49.167300000000004 182.22750000000002c1.2339600000000002 0 2.2344000000000004 -1.00044 2.2344000000000004 -2.2344000000000004 0 -1.2339600000000002 -1.00044 -2.2344000000000004 -2.2344000000000004 -2.2344000000000004 -1.2339600000000002 0 -2.2344000000000004 1.00044 -2.2344000000000004 2.2344000000000004 0 1.2339600000000002 1.00044 2.2344000000000004 2.2344000000000004 2.2344000000000004Z" stroke-width="2.1"></path>
      <path id="Vector_90" stroke="#343825" d="M59.46150000000001 151.7838c-0.44205 0 -0.87402 0.13104 -1.24131 0.37653 -0.3675 0.24549 -0.6539400000000001 0.5945100000000001 -0.8229900000000001 1.00275 -0.16926000000000002 0.40824 -0.21336 0.85764 -0.12726 1.29108 0.08631 0.43344 0.29904000000000003 0.83139 0.6115200000000001 1.14387 0.31248 0.31248 0.7106399999999999 0.52542 1.14408 0.6115200000000001 0.43344 0.08631 0.88263 0.042 1.29108 -0.12705 0.40824 -0.16905 0.75705 -0.45549000000000006 1.00275 -0.8229900000000001 0.24549 -0.3675 0.37653 -0.79947 0.37653 -1.24131 -0.009240000000000002 -0.58968 -0.24759000000000003 -1.1526900000000002 -0.6646500000000001 -1.5697500000000002s-0.98007 -0.65541 -1.5697500000000002 -0.6646500000000001Z" stroke-width="2.1"></path>
      <path id="Vector_91" stroke="#343825" d="M81.8454 174.2076c-0.44205 0 -0.87402 0.13104 -1.24152 0.37653 -0.36729 0.24549 -0.65373 0.5945100000000001 -0.82278 1.00275 -0.16926000000000002 0.40824 -0.21336 0.85764 -0.12726 1.29108 0.08631 0.43344 0.29904000000000003 0.8316000000000001 0.6115200000000001 1.14408 0.31248 0.31248 0.7106399999999999 0.52521 1.14408 0.6113100000000001 0.43344 0.08631 0.88263 0.042 1.29108 -0.12705 0.40824 -0.16905 0.75705 -0.45549000000000006 1.00275 -0.8229900000000001 0.24549 -0.3675 0.37653 -0.79947 0.37653 -1.24131 -0.009240000000000002 -0.58968 -0.24759000000000003 -1.1526900000000002 -0.6646500000000001 -1.5697500000000002s-0.98007 -0.65541 -1.5697500000000002 -0.6646500000000001Z" stroke-width="2.1"></path>
      <path id="Vector_92" stroke="#343825" d="M63.690900000000006 194.47680000000003c-0.44205 0 -0.87402 0.13104 -1.24131 0.37653 -0.3675 0.24549 -0.6539400000000001 0.5945100000000001 -0.8229900000000001 1.00275 -0.16926000000000002 0.40824 -0.21336 0.85764 -0.12726 1.29108 0.08631 0.43344 0.29904000000000003 0.8316000000000001 0.6115200000000001 1.14408 0.31248 0.31248 0.7106399999999999 0.52521 1.14408 0.6115200000000001 0.43344 0.08610000000000001 0.88263 0.04179 1.29108 -0.12726 0.40824 -0.16905 0.7572599999999999 -0.45549000000000006 1.00275 -0.8229900000000001 0.24549 -0.36729 0.37653 -0.79947 0.37653 -1.24131 0.00042 -0.29358 -0.05691 -0.58443 -0.16905 -0.85575 -0.11193 -0.27132 -0.27657000000000004 -0.5178600000000001 -0.48426 -0.72534 -0.20748 -0.20769 -0.45402000000000003 -0.37233000000000005 -0.72534 -0.48426 -0.27132 -0.11214000000000002 -0.5621700000000001 -0.16968 -0.85575 -0.16905Z" stroke-width="2.1"></path>
      <path id="Vector_93" stroke="#343825" d="M114.5214 182.22750000000002c1.2339600000000002 0 2.2344000000000004 -1.00044 2.2344000000000004 -2.2344000000000004 0 -1.2339600000000002 -1.00044 -2.2344000000000004 -2.2344000000000004 -2.2344000000000004 -1.23417 0 -2.2344000000000004 1.00044 -2.2344000000000004 2.2344000000000004 0 1.2339600000000002 1.00023 2.2344000000000004 2.2344000000000004 2.2344000000000004Z" stroke-width="2.1"></path>
      <path id="Vector_94" stroke="#343825" d="M136.02750000000003 171.57000000000002c-0.44184 0 -0.87402 0.13104 -1.24131 0.37653 -0.3675 0.24549 -0.6539400000000001 0.5945100000000001 -0.8229900000000001 1.00275 -0.16905 0.40824 -0.21336 0.85764 -0.12726 1.29108 0.08631 0.43344 0.29904000000000003 0.83139 0.6115200000000001 1.14387 0.31248 0.31269 0.7106399999999999 0.52542 1.14408 0.6115200000000001 0.43344 0.08631 0.8828400000000001 0.042 1.29108 -0.12705 0.40824 -0.16905 0.7572599999999999 -0.45549000000000006 1.00275 -0.8229900000000001 0.24549 -0.3675 0.37653 -0.79947 0.37653 -1.24131 -0.009240000000000002 -0.58968 -0.24759000000000003 -1.1526900000000002 -0.6646500000000001 -1.5697500000000002s-0.98007 -0.65541 -1.5697500000000002 -0.6646500000000001Z" stroke-width="2.1"></path>
      <path id="Vector_95" stroke="#343825" d="M163.11960000000002 180.9108c1.2339600000000002 0 2.2344000000000004 -1.00044 2.2344000000000004 -2.2344000000000004 0 -1.2339600000000002 -1.00044 -2.2344000000000004 -2.2344000000000004 -2.2344000000000004 -1.2339600000000002 0 -2.2344000000000004 1.00044 -2.2344000000000004 2.2344000000000004 0 1.2339600000000002 1.00044 2.2344000000000004 2.2344000000000004 2.2344000000000004Z" stroke-width="2.1"></path>
      <path id="Vector_96" stroke="#343825" d="M174.96990000000002 156.8511c1.2339600000000002 0 2.2344000000000004 -1.00044 2.2344000000000004 -2.2344000000000004 0 -1.2339600000000002 -1.00044 -2.2344000000000004 -2.2344000000000004 -2.2344000000000004 -1.23417 0 -2.2344000000000004 1.00044 -2.2344000000000004 2.2344000000000004 0 1.2339600000000002 1.00023 2.2344000000000004 2.2344000000000004 2.2344000000000004Z" stroke-width="2.1"></path>
      <path id="Vector_97" stroke="#343825" d="M92.778 198.9057c-0.44205 0 -0.87402 0.13104 -1.24152 0.37653 -0.36729 0.24549 -0.65373 0.5945100000000001 -0.82278 1.00275 -0.16926000000000002 0.40824 -0.21336 0.85764 -0.12726 1.29108 0.08631 0.43344 0.29904000000000003 0.83139 0.6115200000000001 1.14387 0.31248 0.31248 0.7106399999999999 0.52542 1.14408 0.6115200000000001 0.43344 0.08631 0.88263 0.042 1.2908700000000002 -0.12705 0.40845000000000004 -0.16905 0.7572599999999999 -0.45549000000000006 1.00275 -0.8229900000000001 0.24570000000000003 -0.3675 0.37674 -0.79947 0.37674 -1.24131 -0.009240000000000002 -0.58968 -0.24759000000000003 -1.1526900000000002 -0.6646500000000001 -1.5697500000000002s-0.98007 -0.65541 -1.5697500000000002 -0.6646500000000001Z" stroke-width="2.1"></path>
      <path id="Vector_98" stroke="#343825" d="M97.2069 155.4546c1.2339600000000002 0 2.2344000000000004 -1.00044 2.2344000000000004 -2.2344000000000004 0 -1.2339600000000002 -1.00044 -2.2344000000000004 -2.2344000000000004 -2.2344000000000004 -1.23417 0 -2.2344000000000004 1.00044 -2.2344000000000004 2.2344000000000004 0 1.2339600000000002 1.00023 2.2344000000000004 2.2344000000000004 2.2344000000000004Z" stroke-width="2.1"></path>
    </g>
  </g>
</svg>